<svg width="100" height="100" viewBox="0 0 100 100" fill="none" xmlns="http://www.w3.org/2000/svg">
<rect width="100" height="100" fill="#F5F5F5"/>
<circle cx="50" cy="50" r="50" fill="#F5F5F5"/>
<mask id="mask0_1216_28" style="mask-type:alpha" maskUnits="userSpaceOnUse" x="0" y="0" width="100" height="100">
<circle cx="50" cy="50" r="50" fill="#C4C4C4"/>
</mask>
<g mask="url(#mask0_1216_28)">
<ellipse cx="51.5" cy="54.5" rx="13.5" ry="5.5" fill="#74CFE4"/>
<path d="M46.0073 46.199C45.9297 44.6364 46.4757 43.1069 47.5254 41.9462C48.5751 40.7855 50.0427 40.0883 51.6062 40.0078C53.1697 39.9273 54.7012 40.47 55.8647 41.5167C57.0283 42.5635 57.7287 44.0288 57.8123 45.5911C57.8134 45.6127 57.8144 45.6343 57.8152 45.656C57.8152 110.436 46.0073 109.936 46.0073 46.199Z" fill="#FFB7B7"/>
<path d="M-24.7855 102.823C-24.2032 101.923 -23.4372 101.156 -22.5378 100.573C-21.6383 99.9894 -20.6256 99.6025 -19.5661 99.4374C-18.5065 99.2724 -17.424 99.333 -16.3896 99.6152C-15.3551 99.8974 -14.3919 100.395 -13.5632 101.075C-13.3018 101.291 -13.0559 101.526 -12.8274 101.777L17.09 97.4241L18.755 74.942C18.8824 73.2173 19.6903 71.6137 21.0009 70.4842C22.3114 69.3547 24.0173 68.7917 25.7432 68.9191C27.4691 69.0465 29.0737 69.8538 30.2039 71.1635C31.3342 72.4732 31.8976 74.1779 31.7701 75.9027C31.7671 75.9427 31.7638 75.9827 31.7601 76.0226L28.8438 107.569L28.8297 107.639C28.4502 108.852 27.6895 109.91 26.6607 110.657C25.6318 111.403 24.3895 111.798 23.1182 111.783L-12.071 111.176C-12.2075 111.384 -12.3548 111.585 -12.5124 111.778C-13.1931 112.607 -14.0413 113.282 -15.0012 113.759C-15.9612 114.237 -17.0113 114.506 -18.0828 114.55C-19.1543 114.594 -20.2229 114.411 -21.2187 114.013C-22.2146 113.616 -23.115 113.012 -23.8612 112.243C-24.0127 112.088 -24.1562 111.927 -24.2918 111.762C-25.3059 110.514 -25.8997 108.978 -25.9884 107.372C-26.0771 105.767 -25.6561 104.175 -24.7855 102.823V102.823Z" fill="#FFB7B7"/>
<path d="M47.9051 11.9302C47.9051 11.9302 39.4122 9.1273 33.9525 20.3391C28.4929 31.5508 20 43.8838 20 43.8838L24.8531 45.0049C24.8531 45.0049 26.0663 37.1567 29.0995 36.0355L27.8863 46.1261C27.8863 46.1261 64.2842 57.8985 80.6633 45.005L80.0567 41.0808C80.0567 41.0808 82.4832 41.6414 82.4832 45.005L84.3031 43.3232C84.3031 43.3232 82.4832 39.9597 77.0235 35.475C73.44 32.5314 72.2085 26.9313 71.7853 23.43C71.4498 20.4657 70.1778 17.6854 68.154 15.4925C64.5257 11.6066 57.9146 7.47663 47.9051 11.9302Z" fill="#2F2E41"/>
<path d="M51.0356 51.102C59.6025 51.102 66.5474 44.1618 66.5474 35.6006C66.5474 27.0394 59.6025 20.0991 51.0356 20.0991C42.4688 20.0991 35.5239 27.0394 35.5239 35.6006C35.5239 44.1618 42.4688 51.102 51.0356 51.102Z" fill="#FFB7B7"/>
<path d="M27.3747 58.8667L24.5544 57.9272C24.5544 57.9272 18.9137 60.2759 18.9137 64.5036C18.9137 68.7313 17.9736 85.642 17.9736 85.642L30.665 87.0512L27.3747 58.8667Z" fill="#74CFE4"/>
<path d="M77.8531 151.264C76.6834 149.954 76.0231 148.268 75.9923 146.513C75.9615 144.757 76.5623 143.049 77.6854 141.699L69.768 75.4368C69.6905 73.8742 70.2365 72.3447 71.2861 71.184C72.3358 70.0233 73.8035 69.3261 75.3669 69.2456C76.9304 69.1651 78.462 69.7078 79.6255 70.7545C80.789 71.8013 81.4894 73.2666 81.573 74.8289C81.5742 74.8505 81.5751 74.8721 81.576 74.8938L88.6589 141.226C88.9158 141.484 89.1524 141.761 89.3669 142.055C89.935 142.84 90.3428 143.729 90.5671 144.672C90.7913 145.614 90.8275 146.592 90.6737 147.548C90.5199 148.505 90.1791 149.422 89.6707 150.247C89.1623 151.072 88.4963 151.789 87.7107 152.356C87.6293 152.415 87.5467 152.472 87.4629 152.528C86.5533 153.129 85.5218 153.522 84.4423 153.678C83.3628 153.834 82.2621 153.749 81.2193 153.43C79.9171 153.036 78.7512 152.286 77.8531 151.264Z" fill="#FFB7B7"/>
<path d="M70.6021 85.642L83.2935 84.2328C83.2935 84.2328 82.3533 67.3221 82.3533 63.0944C82.3533 58.8668 76.7127 56.5181 76.7127 56.5181L73.8924 57.4575L70.6021 85.642Z" fill="#74CFE4"/>
<path d="M34.2738 35.699C39.765 31.7275 44.2101 27.1532 47.1505 21.7118C47.1505 21.7118 57.2279 32.9016 63.3864 33.461C69.5448 34.0205 63.9462 20.0333 63.9462 20.0333L52.7491 17.2358L42.1117 18.3548L33.7139 23.9497L34.2738 35.699Z" fill="#2F2E41"/>
<path d="M63.5691 53.6995C63.5691 53.6995 64.0167 53.4594 37.2475 54.4338L26.0438 57.5173L24.5547 57.9272C24.5547 57.9272 25.9648 86.1116 29.7252 91.2788C33.4857 96.4459 32.5455 99.2644 31.6055 99.7341C30.6654 100.204 28.3151 99.2644 29.7252 101.613C31.1354 103.962 33.0156 102.553 31.1354 103.962C29.2552 105.371 28.3151 110.538 28.3151 110.538L69.6797 116.175C69.6797 116.175 71.0898 97.8551 74.8502 88.4603C78.6106 79.0655 79.5507 75.3076 79.5507 75.3076L76.7305 56.518L63.5691 53.6995Z" fill="#74CFE4"/>
</g>
</svg>
