<?xml version="1.0" encoding="utf-8"?>
<!-- Generator: Adobe Illustrator 19.2.0, SVG Export Plug-In . SVG Version: 6.00 Build 0)  -->
<svg version="1.1"
	 id="svg2" sodipodi:docname="Hero-Image.ai" xmlns:cc="http://creativecommons.org/ns#" xmlns:dc="http://purl.org/dc/elements/1.1/" xmlns:inkscape="http://www.inkscape.org/namespaces/inkscape" xmlns:rdf="http://www.w3.org/1999/02/22-rdf-syntax-ns#" xmlns:sodipodi="http://sodipodi.sourceforge.net/DTD/sodipodi-0.dtd" xmlns:svg="http://www.w3.org/2000/svg"
	 xmlns="http://www.w3.org/2000/svg" xmlns:xlink="http://www.w3.org/1999/xlink" x="0px" y="0px" viewBox="0 0 2040 1020"
	 style="enable-background:new 0 0 2040 1020;" xml:space="preserve">
<style type="text/css">
	.st0{fill:url(#path36_1_);}
	.st1{fill:url(#SVGID_2_);}
	.st2{clip-path:url(#SVGID_4_);}
	.st3{fill:url(#path56_1_);}
	.st4{fill:url(#path76_1_);}
	.st5{fill:#B9B9BA;}
	.st6{fill:#DDDDDD;}
	.st7{fill:#BCBEC0;}
	.st8{fill:#F1F1F2;}
	.st9{fill:none;stroke:#368FB2;stroke-width:5;stroke-miterlimit:10;}
	.st10{clip-path:url(#SVGID_6_);}
	.st11{fill:#403E56;}
	.st12{fill:#368FB2;}
	.st13{fill:#FFFFFF;}
	.st14{fill:#F8B5B7;}
	.st15{fill:#302E42;}
	.st16{fill:#76CFE4;}
</style>
<g id="g44">
	<g id="g42">
		<g id="g40">
			<g id="g38">
				
					<linearGradient id="path36_1_" gradientUnits="userSpaceOnUse" x1="600.3577" y1="2.1472" x2="601.3577" y2="2.1472" gradientTransform="matrix(0 -615 -615 0 1320 369985)">
					<stop  offset="0" style="stop-color:#FFFFFF"/>
					<stop  offset="1" style="stop-color:#FFFFFF;stop-opacity:0"/>
				</linearGradient>
				<path id="path36" class="st0" d="M-34816,32767h69630.9v-65535H-34816V32767z"/>
			</g>
		</g>
	</g>
</g>
<sodipodi:namedview  bordercolor="#666666" borderopacity="1" gridtolerance="10" guidetolerance="10" id="namedview4" inkscape:pageopacity="0" inkscape:pageshadow="2" inkscape:window-height="480" inkscape:window-width="640" objecttolerance="10" pagecolor="#ffffff">
	</sodipodi:namedview>
<g id="g12">
	<g>
		<g>
			
				<linearGradient id="SVGID_2_" gradientUnits="userSpaceOnUse" x1="1020" y1="200" x2="1020" y2="1020" gradientTransform="matrix(1 0 0 -1 0 1020)">
				<stop  offset="0.3547" style="stop-color:#FFFFFF;stop-opacity:0"/>
				<stop  offset="1" style="stop-color:#72D8DD"/>
			</linearGradient>
			<rect id="SVGID_1_" class="st1" width="2040" height="820"/>
		</g>
		<g>
			<defs>
				<rect id="SVGID_3_" width="2040" height="820"/>
			</defs>
			<clipPath id="SVGID_4_">
				<use xlink:href="#SVGID_3_"  style="overflow:visible;"/>
			</clipPath>
			<g id="g14" class="st2">
				<g id="g20">
					<g id="g22">
					</g>
					<g id="g46">
						<g id="g48">
							
								<linearGradient id="path56_1_" gradientUnits="userSpaceOnUse" x1="1020" y1="200" x2="1020" y2="1020" gradientTransform="matrix(1 0 0 -1 0 1020)">
								<stop  offset="0.3547" style="stop-color:#FFFFFF;stop-opacity:0"/>
								<stop  offset="1" style="stop-color:#72D8DD"/>
							</linearGradient>
							<path id="path56" class="st3" d="M0,820h2040V0H0V820z"/>
						</g>
					</g>
				</g>
			</g>
		</g>
	</g>
</g>
<g id="g58">
	<g id="g60">
		<g id="g66">
			<g id="g68">
				
					<linearGradient id="path76_1_" gradientUnits="userSpaceOnUse" x1="598.9" y1="2.7001" x2="599.9" y2="2.7001" gradientTransform="matrix(0 200 -200 0 1560.0156 -118960)">
					<stop  offset="0" style="stop-color:#E7E8E9"/>
					<stop  offset="1" style="stop-color:#BCBEC0"/>
				</linearGradient>
				<path id="path76" class="st4" d="M0,1020h2040V820H0V1020z"/>
			</g>
		</g>
	</g>
</g>
<g id="g78" transform="translate(1237.6548,68.4796)">
	<path id="path80" class="st5" d="M472.6,860.2l19.9,16.3H288.3l-106-54.3h-310.7l-19.5,50H43.5l8.4,20.3h-238.4l30.2-70.3h-235.5
		l-95.2,62.6l-16.9-13.4l77.2-49.2H-653l-179.6,53h-110.1l-0.1-13.7h99.5l178.2-51.5l0.9-33.4l-82.4-7.5l13.6-14.3l94.4,8.4
		l0.5,42.1h553.5l6.5-19.4h-29.6l-3.7-15.2H-47l-10.3,34.7h248.1l31.5-26.5l13.4,6.2L202.6,816l95.3,44.3L472.6,860.2L472.6,860.2z"
		/>
</g>
<g id="g82" transform="translate(1399.769,282.8142)">
	<path id="path84" class="st6" d="M551.7,360.1v51.1H524v-22.5h-41.3v48h-23.4v-25.6h-38.8v53h-24v-75.4h-61v49.8h-25.9v-69.4h-49.9
		v19.6h-25.9V360h-79.5v88.6h-16.6v-28.3H72.6v42H54.1v-82.2H-31v76.7h-29.6v-25.6h-38.8V475h-20.3V360.1h-53.6v96.8h-18.6v-51.1
		h-83.2V435h-37v-46.2h-64.8v90h-27.7V360.1h-46.3v93.2h-38.7v-64.5h-63v82.7H-584v-62.1h-86.9v43.8h-20.3v-73.1h-74v118.7h-33.3
		V413h-75.8v87.7h-20.3v-112H-926v100h-22.2v-72.1h-31.4v84h-16.6V369.2h-46.2v84h-27.7v-64.5h-62.9v113.8h-33.3V413h-62.9v75.7
		h-25.9v-37.4h-59.2v85.8h1920V359.9h-54V360.1z"/>
</g>
<g id="g86" transform="translate(168.9652,56.3095)">
	<path id="path88" class="st7" d="M116.3,888.6l-44-7.3V734.6l44-8.8V888.6z"/>
</g>
<g id="g90" transform="translate(168.9652,178.3858)">
	<path id="path92" class="st8" d="M116.3,603.8l44,8.8v146.6l-44,7.3V603.8z"/>
</g>
<g id="g94" transform="translate(318.0268,128.049)">
	<path id="path96" class="st7" d="M166,721.2l-23.8-4V638l23.8-4.7V721.2z"/>
</g>
<g id="g98" transform="translate(318.0268,193.9207)">
	<path id="path100" class="st8" d="M166,567.5l23.8,4.8v79.1l-23.8,4V567.5z"/>
</g>
<g id="g102" transform="translate(1063.3761,123.7096)">
	<path id="path104" class="st7" d="M414.5,731.3l-23.8-4v-79.2l23.8-4.7V731.3z"/>
</g>
<g id="g106" transform="translate(1063.3761,189.5813)">
	<path id="path108" class="st8" d="M414.5,577.6l23.8,4.8v79.1l-23.8,4V577.6z"/>
</g>
<g id="g110" transform="translate(187.9767,67.644)">
	<path id="path112" class="st9" d="M122.7,862.2h79.7l202.1-58.9h824.9l118.1,54.9"/>
</g>
<g id="g114">
	<g>
		<g>
			<defs>
				<rect id="SVGID_5_" x="60" width="1920" height="1020"/>
			</defs>
			<clipPath id="SVGID_6_">
				<use xlink:href="#SVGID_5_"  style="overflow:visible;"/>
			</clipPath>
			<g id="g116" class="st10">
				<g id="g122" transform="translate(1418.0266,16.6836)">
					<path id="path124" class="st11" d="M532.7,981.1c7.5,14,22.6,21.1,26.4,22.8c0.7-4.1,3-20.6-4.5-34.5
						c-7.5-14-22.6-21.1-26.4-22.8C527.4,950.6,525.1,967.1,532.7,981.1 M560.2,1006l-0.9-0.3c-0.2-0.1-19.2-7.4-28.1-23.9
						c-8.9-16.5-4.5-36.4-4.5-36.6l0.2-0.9l0.9,0.3c0.2,0.1,19.2,7.4,28.1,23.9s4.5,36.4,4.5,36.6L560.2,1006z"/>
				</g>
				<g id="g126" transform="translate(1347.1494,61.7671)">
					<path id="path128" class="st5" d="M509,875.9c0,14.5-47.3,26.2-105.6,26.2s-105.6-11.7-105.6-26.2s47.3-26.2,105.6-26.2
						C461.8,849.6,509,861.4,509,875.9"/>
				</g>
				<g id="g130" transform="translate(1422.0646,20.4525)">
					<path id="path132" class="st12" d="M534,972.3c16,9.6,22.2,28.8,22.2,28.8s-19.8,3.5-35.8-6.1s-22.2-28.8-22.2-28.8
						S518,962.6,534,972.3"/>
				</g>
				<g id="g134" transform="translate(1196.4059,77.0522)">
					<path id="path136" class="st11" d="M458.8,840.2c0,4.9-1,9.8-2.8,14.3c-1.9,4.5-4.6,8.7-8.1,12.2s-7.6,6.3-12.2,8.1
						c-4.5,1.9-9.4,2.9-14.3,2.9h-185c-9.9,0-19.5-3.9-26.5-11c-7.1-7-11-16.6-11-26.5V364.6c0-4.9,1-9.8,2.8-14.4
						c1.9-4.5,4.7-8.7,8.1-12.2c3.5-3.5,7.6-6.2,12.2-8.1c4.5-1.9,9.4-2.9,14.4-2.9h22.5c-1.1,2.7-1.5,5.6-1.2,8.6
						c0.3,2.9,1.3,5.7,2.9,8.1s3.8,4.4,6.4,5.8s5.5,2.1,8.4,2.1h105.5c2.9,0,5.8-0.7,8.4-2.1s4.8-3.4,6.4-5.8s2.6-5.2,2.9-8.1
						s-0.1-5.9-1.2-8.6h24c9.9,0,19.5,3.9,26.5,11c7,7,11,16.6,11,26.5L458.8,840.2z M469.5,450.8V364c0-13.3-5.3-26.1-14.7-35.5
						c-9.4-9.4-22.2-14.7-35.6-14.7H235.1c-13.3,0-26.1,5.3-35.6,14.7c-9.4,9.4-14.7,22.2-14.7,35.5v476.3
						c0,13.3,5.3,26.1,14.7,35.5s22.2,14.7,35.6,14.7h184.1c6.6,0,13.1-1.3,19.3-3.8c6.1-2.5,11.6-6.2,16.3-10.9
						c4.7-4.7,8.4-10.2,10.9-16.3s3.8-12.6,3.8-19.2V512.6h3.2v-61.8H469.5z"/>
				</g>
				<g id="g138" transform="translate(1174.95,192.6441)">
					<path id="path140" class="st12" d="M451.6,570.5c0,44.2-80.2,142.8-80.2,142.8s-80.2-98.6-80.2-142.8
						c0-21.2,8.4-41.6,23.5-56.6c15-15,35.4-23.5,56.7-23.5s41.6,8.4,56.7,23.5C443.2,528.9,451.6,549.3,451.6,570.5"/>
				</g>
				<g id="g142" transform="translate(1156.1698,194.2283)">
					<path id="path144" class="st13" d="M445.4,566.8c0,10.9-3.2,21.5-9.3,30.6c-6.1,9.1-14.7,16.1-24.7,20.3
						c-10.1,4.2-21.2,5.3-31.8,3.1c-10.7-2.1-20.5-7.4-28.2-15.1c-7.7-7.7-13-17.5-15.1-28.2s-1-21.8,3.1-31.8s11.2-18.7,20.3-24.7
						c9.1-6.1,19.7-9.3,30.6-9.3c7.2,0,14.4,1.4,21.1,4.2s12.8,6.8,17.9,11.9c5.1,5.1,9.2,11.2,12,17.9
						C444,552.4,445.4,559.5,445.4,566.8L445.4,566.8z"/>
				</g>
				<g id="g146" transform="translate(1114.6858,178.1345)">
					<path id="path148" class="st12" d="M431.6,604.4c11.3,0,20.5-9.2,20.5-20.5s-9.2-20.5-20.5-20.5s-20.5,9.2-20.5,20.5
						C411,595.2,420.2,604.4,431.6,604.4"/>
				</g>
				<g id="g150" transform="translate(1137.0377,158.3735)">
					<path id="path152" class="st12" d="M439,650.5c-8.9,5.6-19.1,8.6-29.6,8.6s-20.8-3-29.6-8.6c1.8-6.4,5.7-12.1,11.1-16.1
						c5.3-4,11.9-6.2,18.5-6.2c6.7,0,13.2,2.2,18.5,6.2C433.3,638.4,437.2,644,439,650.5"/>
				</g>
				<g id="g154" transform="translate(184.9604,224.9514)">
					<path id="path156" class="st12" d="M121.7,495.1c0,4.2-1.2,8.3-3.6,11.8c-2.3,3.5-5.7,6.2-9.6,7.9c-3.9,1.6-8.2,2-12.3,1.2
						c-4.1-0.8-7.9-2.9-10.9-5.8c-3-3-5-6.8-5.8-10.9s-0.4-8.4,1.2-12.3s4.3-7.2,7.9-9.6c3.5-2.3,7.6-3.6,11.9-3.6
						c2.8,0,5.6,0.5,8.2,1.6s4.9,2.6,6.9,4.6s3.6,4.3,4.6,6.9C121.1,489.5,121.7,492.3,121.7,495.1L121.7,495.1z M125.8,467.5
						c-6.8-6.8-15.9-10.6-25.5-10.6s-18.7,3.8-25.5,10.6c-6.8,6.8-10.6,15.9-10.6,25.5c0,19.9,36.1,64.3,36.1,64.3
						s36.1-44.3,36.1-64.3C136.4,483.4,132.6,474.2,125.8,467.5"/>
				</g>
				<g id="g158" transform="translate(1175.7181,285.4683)">
					<path id="path160" class="st14" d="M451.9,353.9c0.9-1.3,2-2.5,3.4-3.4c1.3-0.9,2.9-1.5,4.5-1.7s3.2-0.2,4.8,0.3
						c1.6,0.4,3,1.2,4.2,2.2c0.4,0.3,0.8,0.7,1.1,1.1l44.8-6.5l2.5-33.7c0.2-2.6,1.4-5,3.4-6.7s4.5-2.5,7.1-2.3s5,1.4,6.7,3.4
						s2.5,4.5,2.3,7.1c0,0.1,0,0.1,0,0.2l-4.4,47.3v0.1c-0.6,1.8-1.7,3.4-3.2,4.5s-3.4,1.7-5.3,1.7l-52.7-0.9
						c-0.2,0.3-0.4,0.6-0.7,0.9c-1,1.2-2.3,2.3-3.7,3c-1.4,0.7-3,1.1-4.6,1.2s-3.2-0.2-4.7-0.8c-1.5-0.6-2.8-1.5-4-2.7
						c-0.2-0.2-0.4-0.5-0.6-0.7c-1.5-1.9-2.4-4.2-2.5-6.6C450,358.3,450.6,355.9,451.9,353.9"/>
				</g>
				<g id="g162" transform="translate(1243.4825,70.1097)">
					<path id="path164" class="st14" d="M474.5,856.4h-12.8l-6.1-49.3h18.9V856.4z"/>
				</g>
				<g id="g166" transform="translate(1245.9272,60.823)">
					<path id="path168" class="st15" d="M475.3,878.1h-41.2v-0.5c0-4.3,1.7-8.3,4.7-11.3s7.1-4.7,11.3-4.7l0,0h25.2V878.1z"/>
				</g>
				<g id="g170" transform="translate(1310.4707,78.7954)">
					<path id="path172" class="st14" d="M496.8,836.1l-12.1,4.1L463,795.5l17.9-6.1L496.8,836.1z"/>
				</g>
				<g id="g174" transform="translate(1315.7848,70.795)">
					<path id="path176" class="st15" d="M498.6,854.8l-39,13.3l-0.2-0.5c-1.4-4-1.1-8.4,0.8-12.2s5.2-6.7,9.2-8.1l0,0l23.8-8.1
						L498.6,854.8z"/>
				</g>
				<g id="g178" transform="translate(1254.0389,393.2032)">
					<path id="path180" class="st15" d="M478,102.5c0,0-12.7-4.2-20.9,12.6c-8.2,16.8-20.9,35.3-20.9,35.3l7.3,1.7
						c0,0,1.8-11.8,6.4-13.4l-1.8,15.1c0,0,54.5,17.6,79.1-1.7l-0.9-5.9c0,0,3.6,0.8,3.6,5.9l2.7-2.5c0,0-2.7-5-10.9-11.8
						c-5.4-4.4-7.2-12.8-7.8-18c-0.5-4.4-2.4-8.6-5.4-11.9C502.9,102,493,95.9,478,102.5"/>
				</g>
				<g id="g182" transform="translate(1257.5565,349.1938)">
					<path id="path184" class="st14" d="M479.2,205.2c12.8,0,23.2-10.4,23.2-23.2s-10.4-23.2-23.2-23.2c-12.8,0-23.2,10.4-23.2,23.2
						C455.9,194.8,466.4,205.2,479.2,205.2"/>
				</g>
				<g id="g186" transform="translate(1234.3206,334.8524)">
					<path id="path188" class="st16" d="M471.4,238.7l-4.2-1.4c0,0-8.4,3.5-8.4,9.9c0,6.3-1.4,31.7-1.4,31.7l19,2.1L471.4,238.7z"/>
				</g>
				<g id="g190" transform="translate(1291.0321,231.0453)">
					<path id="path192" class="st14" d="M490.3,480.9c-1.8-2-2.7-4.5-2.8-7.1c0-2.6,0.9-5.2,2.5-7.2l-11.9-99.3
						c-0.1-2.3,0.7-4.6,2.3-6.4c1.6-1.7,3.8-2.8,6.1-2.9c2.3-0.1,4.6,0.7,6.4,2.3c1.7,1.6,2.8,3.8,2.9,6.1v0.1l10.6,99.4
						c0.4,0.4,0.7,0.8,1.1,1.2c0.9,1.2,1.5,2.5,1.8,3.9s0.4,2.9,0.2,4.3c-0.2,1.4-0.7,2.8-1.5,4s-1.8,2.3-2.9,3.2
						c-0.1,0.1-0.2,0.2-0.4,0.3c-1.4,0.9-2.9,1.5-4.5,1.7s-3.3,0.1-4.8-0.4C493.4,483.5,491.7,482.4,490.3,480.9"/>
				</g>
				<g id="g194" transform="translate(1282.8856,304.771)">
					<path id="path196" class="st16" d="M487.6,308.9l19-2.1c0,0-1.4-25.3-1.4-31.7c0-6.3-8.4-9.9-8.4-9.9l-4.2,1.4L487.6,308.9z"/>
				</g>
				<g id="g198" transform="translate(1236.4327,278.4105)">
					<path id="path200" class="st15" d="M472.1,370.4c0,0-16.2,29.6-16.2,65.5s-1.4,200.5-1.4,200.5s21.1,9.9,33.8-2.1L499.6,452
						L544,630.8c0,0,21.1,4.2,31-2.8l-19-124.5c0,0-7.7-116.8-28.9-125.3C505.9,369.7,472.1,370.4,472.1,370.4"/>
				</g>
				<g id="g202" transform="translate(1238.7246,366.4989)">
					<path id="path204" class="st15" d="M472.9,164.8c8.2-5.9,14.9-12.8,19.3-21c0,0,15.1,16.8,24.3,17.6s0.8-20.1,0.8-20.1
						l-16.8-4.2l-15.9,1.7l-12.6,8.4L472.9,164.8z"/>
				</g>
				<g id="g206" transform="translate(1274.9841,340.6586)">
					<path id="path208" class="st16" d="M485,225.1c0,0,0.7-0.4-39.4,1.1l-16.8,4.6l-2.2,0.6c0,0,2.1,42.2,7.7,50
						c5.6,7.7,4.2,12,2.8,12.7c-1.4,0.7-4.9-0.7-2.8,2.8s4.9,1.4,2.1,3.5s-4.2,9.9-4.2,9.9l62,8.4c0,0,2.1-27.4,7.7-41.5
						s7-19.7,7-19.7l-4.2-28.1L485,225.1z"/>
				</g>
				<g id="g210" transform="translate(438.316,80.3148)">
					<path id="path212" class="st7" d="M206.1,832.6l-31.1-6.7V692.6l31.1-8V832.6z"/>
				</g>
				<g id="g214" transform="translate(438.316,191.2547)">
					<path id="path216" class="st8" d="M206.1,573.7l31.1,8V715l-31.1,6.7V573.7z"/>
				</g>
				<g id="g218" transform="translate(510.8554,46.8684)">
					<path id="path220" class="st7" d="M230.3,910.6l-26.3-4.7v-94.6l26.3-5.7V910.6z"/>
				</g>
				<g id="g222" transform="translate(510.8554,125.544)">
					<path id="path224" class="st8" d="M230.3,727.1l26.3,5.7v94.5l-26.3,4.7V727.1z"/>
				</g>
				<g id="g226" transform="translate(779.6692,116.8095)">
					<path id="path228" class="st7" d="M319.9,747.4l-31.5-5.2V637.3l31.5-6.3V747.4z"/>
				</g>
				<g id="g230" transform="translate(779.6692,204.0735)">
					<path id="path232" class="st8" d="M319.9,543.8l31.5,6.3v104.8l-31.5,5.2V543.8z"/>
				</g>
				<g id="g234" transform="translate(923.4294,40.3678)">
					<path id="path236" class="st7" d="M367.8,925.8l-35.1-4.8v-96.3l35.1-5.8V925.8z"/>
				</g>
				<g id="g238" transform="translate(923.4294,120.515)">
					<path id="path240" class="st8" d="M367.8,738.8l35.1,5.8v96.3l-35.1,4.8V738.8z"/>
				</g>
				<g id="g242" transform="translate(620.6399,69.5634)">
					<path id="path244" class="st7" d="M266.9,857.7l-42.2-7V710.2l42.2-8.4V857.7z"/>
				</g>
				<g id="g246" transform="translate(620.6399,186.4713)">
					<path id="path248" class="st8" d="M266.9,584.9l42.2,8.4v140.4l-42.2,7V584.9z"/>
				</g>
				<g id="g250" transform="translate(198.9767,67.644)">
					<path id="path252" class="st12" d="M126.3,862.2c0,7.4-6,13.3-13.3,13.3s-13.3-6-13.3-13.3s6-13.3,13.3-13.3
						S126.3,854.8,126.3,862.2"/>
				</g>
				<g id="g254" transform="translate(1124.8298,69.3403)">
					<path id="path256" class="st12" d="M434.9,858.2c0,7.4-6,13.3-13.3,13.3c-7.4,0-13.3-6-13.3-13.3c0-7.4,6-13.3,13.3-13.3
						C429,844.9,434.9,850.8,434.9,858.2"/>
				</g>
			</g>
		</g>
	</g>
</g>
</svg>
