<svg width="256" height="256" viewBox="0 0 256 256" fill="none" xmlns="http://www.w3.org/2000/svg">
<path d="M127.872 0C57.216 0 0 57.344 0 128C0 198.656 57.216 256 127.872 256C198.656 256 256 198.656 256 128C256 57.344 198.656 0 127.872 0ZM128 230.4C71.424 230.4 25.6 184.576 25.6 128C25.6 71.424 71.424 25.6 128 25.6C184.576 25.6 230.4 71.424 230.4 128C230.4 184.576 184.576 230.4 128 230.4Z" fill="white"/>
<path d="M134.4 64H115.2V140.8L182.4 181.12L192 165.376L134.4 131.2V64Z" fill="white"/>
</svg>
