<svg width="1440" height="298" viewBox="0 0 1440 298" fill="none" xmlns="http://www.w3.org/2000/svg">
<path d="M424.826 121.867C424.826 160.453 354.913 246.412 354.913 246.412C354.913 246.412 285 160.453 285 121.867C285 103.337 292.366 85.5661 305.477 72.4635C318.588 59.3609 336.371 52 354.913 52C373.455 52 391.238 59.3609 404.349 72.4635C417.46 85.5661 424.826 103.337 424.826 121.867Z" fill="#358FB2"/>
<path d="M396.254 118.829C396.254 127 393.83 134.987 389.287 141.781C384.745 148.575 378.288 153.87 370.734 156.997C363.18 160.124 354.868 160.942 346.849 159.348C338.83 157.754 331.464 153.819 325.682 148.042C319.901 142.264 315.964 134.903 314.369 126.889C312.773 118.875 313.592 110.568 316.721 103.02C319.85 95.4707 325.149 89.0185 331.947 84.479C338.745 79.9395 346.738 77.5166 354.914 77.5166C360.341 77.5141 365.714 78.5797 370.729 80.6526C375.743 82.7255 380.299 85.7651 384.138 89.5978C387.977 93.4305 391.023 97.9813 393.102 102.99C395.18 107.999 396.252 113.369 396.254 118.791V118.829Z" fill="white"/>
<path d="M354.77 135.137C363.276 135.137 370.171 128.247 370.171 119.746C370.171 111.246 363.276 104.355 354.77 104.355C346.264 104.355 339.369 111.246 339.369 119.746C339.369 128.247 346.264 135.137 354.77 135.137Z" fill="#358FB2"/>
<path d="M377.122 154.899C370.483 159.118 362.778 161.358 354.91 161.357C347.042 161.356 339.338 159.113 332.7 154.893C334.08 150.07 336.995 145.828 341.003 142.808C345.011 139.789 349.894 138.156 354.913 138.156C359.932 138.157 364.815 139.791 368.822 142.812C372.829 145.833 375.743 150.076 377.122 154.899Z" fill="#358FB2"/>
<path d="M354.913 296.838C365.321 296.838 373.759 288.406 373.759 278.004C373.759 267.603 365.321 259.17 354.913 259.17C344.505 259.17 336.067 267.603 336.067 278.004C336.067 288.406 344.505 296.838 354.913 296.838Z" fill="#358FB2"/>
<path d="M1000.21 97.8229C1000.8 96.923 1001.56 96.1562 1002.46 95.5728C1003.36 94.9894 1004.37 94.6025 1005.43 94.4374C1006.49 94.2724 1007.58 94.333 1008.61 94.6152C1009.64 94.8974 1010.61 95.3948 1011.44 96.0749C1011.7 96.2913 1011.94 96.5258 1012.17 96.7767L1042.09 92.4241L1043.75 69.942C1043.88 68.2173 1044.69 66.6137 1046 65.4842C1047.31 64.3547 1049.02 63.7917 1050.74 63.9191C1052.47 64.0465 1054.07 64.8538 1055.2 66.1635C1056.33 67.4732 1056.9 69.1779 1056.77 70.9027C1056.77 70.9427 1056.76 70.9827 1056.76 71.0226L1053.84 102.569L1053.83 102.639C1053.45 103.852 1052.69 104.91 1051.66 105.657C1050.63 106.403 1049.39 106.798 1048.12 106.783L1012.93 106.176C1012.79 106.384 1012.65 106.585 1012.49 106.778C1011.81 107.607 1010.96 108.282 1010 108.759C1009.04 109.237 1007.99 109.506 1006.92 109.55C1005.85 109.594 1004.78 109.411 1003.78 109.013C1002.79 108.616 1001.88 108.012 1001.14 107.243C1000.99 107.088 1000.84 106.927 1000.71 106.762C999.694 105.514 999.1 103.978 999.012 102.372C998.923 100.767 999.344 99.1749 1000.21 97.8229Z" fill="#FFB7B7"/>
<path d="M1060.53 289.51L1052 289.509L1047.94 256.619L1060.53 256.62L1060.53 289.51Z" fill="#FFB7B7"/>
<path d="M1062.71 297.776L1035.19 297.775V297.427C1035.19 294.588 1036.32 291.867 1038.33 289.86C1040.34 287.853 1043.06 286.725 1045.9 286.725H1045.9L1062.71 286.726L1062.71 297.776Z" fill="#2F2E41"/>
<path d="M1120.15 281.779L1112.08 284.531L1097.61 254.712L1109.53 250.649L1120.15 281.779Z" fill="#FFB7B7"/>
<path d="M1124.89 288.9L1098.84 297.776L1098.73 297.447C1097.82 294.76 1098 291.82 1099.26 289.273C1100.51 286.725 1102.72 284.779 1105.41 283.863L1105.41 283.863L1121.32 278.442L1124.89 288.9Z" fill="#2F2E41"/>
<path d="M1069.93 1.93023C1069.93 1.93023 1061.43 -0.872698 1055.97 10.3391C1050.51 21.5508 1042.02 33.8838 1042.02 33.8838L1046.87 35.0049C1046.87 35.0049 1048.09 27.1567 1051.12 26.0355L1049.91 36.1261C1049.91 36.1261 1086.31 47.8985 1102.68 35.005L1102.08 31.0808C1102.08 31.0808 1104.5 31.6414 1104.5 35.005L1106.32 33.3232C1106.32 33.3232 1104.5 29.9597 1099.04 25.475C1095.46 22.5314 1094.23 16.9313 1093.81 13.43C1093.47 10.4657 1092.2 7.68541 1090.18 5.49246C1086.55 1.60665 1079.94 -2.52337 1069.93 1.93023Z" fill="#2F2E41"/>
<path d="M1073.06 41.102C1081.62 41.102 1088.57 34.1618 1088.57 25.6006C1088.57 17.0394 1081.62 10.0991 1073.06 10.0991C1064.49 10.0991 1057.55 17.0394 1057.55 25.6006C1057.55 34.1618 1064.49 41.102 1073.06 41.102Z" fill="#FFB7B7"/>
<path d="M1052.37 53.8667L1049.55 52.9272C1049.55 52.9272 1043.91 55.2759 1043.91 59.5036C1043.91 63.7313 1042.97 80.642 1042.97 80.642L1055.67 82.0512L1052.37 53.8667Z" fill="#74CFE4"/>
<path d="M1102.85 146.264C1101.68 144.954 1101.02 143.268 1100.99 141.513C1100.96 139.757 1101.56 138.049 1102.69 136.699L1094.77 70.4368C1094.69 68.8742 1095.24 67.3447 1096.29 66.184C1097.34 65.0233 1098.8 64.3261 1100.37 64.2456C1101.93 64.1651 1103.46 64.7078 1104.63 65.7545C1105.79 66.8013 1106.49 68.2666 1106.57 69.8289C1106.57 69.8505 1106.58 69.8721 1106.58 69.8938L1113.66 136.226C1113.92 136.484 1114.15 136.761 1114.37 137.055C1114.94 137.84 1115.34 138.729 1115.57 139.672C1115.79 140.614 1115.83 141.592 1115.67 142.548C1115.52 143.505 1115.18 144.422 1114.67 145.247C1114.16 146.072 1113.5 146.789 1112.71 147.356C1112.63 147.415 1112.55 147.472 1112.46 147.528C1111.55 148.129 1110.52 148.522 1109.44 148.678C1108.36 148.834 1107.26 148.749 1106.22 148.43C1104.92 148.036 1103.75 147.286 1102.85 146.264Z" fill="#FFB7B7"/>
<path d="M1095.6 80.642L1108.29 79.2328C1108.29 79.2328 1107.35 62.3221 1107.35 58.0944C1107.35 53.8668 1101.71 51.5181 1101.71 51.5181L1098.89 52.4575L1095.6 80.642Z" fill="#74CFE4"/>
<path d="M1054.26 104.105C1054.26 104.105 1043.44 123.858 1043.44 147.815C1043.44 171.772 1042.5 281.691 1042.5 281.691C1042.5 281.691 1056.61 288.267 1065.07 280.282L1072.59 158.619L1102.2 277.933C1102.2 277.933 1116.3 280.752 1122.88 276.054L1110.19 192.91C1110.19 192.91 1105.02 114.933 1090.92 109.296C1076.82 103.659 1054.26 104.105 1054.26 104.105Z" fill="#2F2E41"/>
<path d="M1056.3 25.699C1061.79 21.7275 1066.23 17.1532 1069.17 11.7118C1069.17 11.7118 1079.25 22.9016 1085.41 23.461C1091.57 24.0205 1085.97 10.0333 1085.97 10.0333L1074.77 7.23584L1064.13 8.35482L1055.74 13.9497L1056.3 25.699Z" fill="#2F2E41"/>
<path d="M1088.57 48.6995C1088.57 48.6995 1089.02 48.4594 1062.25 49.4338L1051.04 52.5173L1049.55 52.9272C1049.55 52.9272 1050.96 81.1116 1054.73 86.2788C1058.49 91.4459 1057.55 94.2644 1056.61 94.7341C1055.67 95.2038 1053.32 94.2644 1054.73 96.6131C1056.14 98.9618 1058.02 97.5525 1056.14 98.9618C1054.26 100.371 1053.32 105.538 1053.32 105.538L1094.68 111.175C1094.68 111.175 1096.09 92.8551 1099.85 83.4603C1103.61 74.0655 1104.55 70.3076 1104.55 70.3076L1101.73 51.518L1088.57 48.6995Z" fill="#74CFE4"/>
<path d="M1418.29 297.285L1417.64 297.041C1417.5 296.987 1403.23 291.523 1396.54 279.134C1389.86 266.745 1393.13 251.828 1393.17 251.679L1393.32 251L1393.97 251.244C1394.12 251.298 1408.39 256.762 1415.07 269.151C1421.75 281.54 1418.48 296.457 1418.45 296.606L1418.29 297.285ZM1397.61 278.558C1403.27 289.032 1414.54 294.402 1417.4 295.627C1417.94 292.567 1419.65 280.192 1414 269.728C1408.35 259.264 1397.07 253.886 1394.21 252.658C1393.67 255.72 1391.97 268.094 1397.61 278.558Z" fill="#3F3D56"/>
<path d="M1401.65 274.788C1413.67 282.011 1418.29 296.358 1418.29 296.358C1418.29 296.358 1403.44 298.994 1391.43 291.771C1379.41 284.548 1374.79 270.202 1374.79 270.202C1374.79 270.202 1389.64 267.566 1401.65 274.788Z" fill="#358FB2"/>
<path d="M1439.39 297.861H950.608C950.447 297.861 950.292 297.797 950.178 297.683C950.064 297.569 950 297.414 950 297.253C950 297.092 950.064 296.937 950.178 296.823C950.292 296.71 950.447 296.646 950.608 296.646H1439.39C1439.55 296.646 1439.71 296.71 1439.82 296.823C1439.94 296.937 1440 297.092 1440 297.253C1440 297.414 1439.94 297.569 1439.82 297.683C1439.71 297.797 1439.55 297.861 1439.39 297.861Z" fill="#CBCBCB"/>
<path d="M21.7059 297.285L22.3584 297.041C22.5018 296.987 36.7718 291.523 43.4564 279.134C50.1414 266.745 46.8681 251.828 46.8342 251.679L46.6802 251L46.028 251.244C45.8846 251.298 31.615 256.762 24.93 269.151C18.245 281.54 21.5183 296.457 21.5522 296.606L21.7059 297.285ZM42.386 278.558C36.7344 289.032 25.4578 294.402 22.6006 295.627C22.0574 292.567 20.3538 280.192 26.0004 269.728C31.6464 259.264 42.9275 253.886 45.7858 252.658C46.3293 255.72 48.0323 268.094 42.386 278.558Z" fill="#3F3D56"/>
<path d="M38.348 274.788C26.3348 282.011 21.7081 296.358 21.7081 296.358C21.7081 296.358 36.5587 298.994 48.572 291.771C60.5852 284.548 65.2119 270.202 65.2119 270.202C65.2119 270.202 50.3613 267.566 38.348 274.788Z" fill="#358FB2"/>
<path d="M0.607941 297.861H489.392C489.553 297.861 489.708 297.797 489.822 297.683C489.936 297.569 490 297.414 490 297.253C490 297.092 489.936 296.937 489.822 296.823C489.708 296.71 489.553 296.646 489.392 296.646H0.607941C0.446716 296.646 0.292084 296.71 0.17807 296.823C0.0640564 296.937 0 297.092 0 297.253C0 297.414 0.0640564 297.569 0.17807 297.683C0.292084 297.797 0.446716 297.861 0.607941 297.861Z" fill="#CBCBCB"/>
</svg>
