<svg width="254" height="56" viewBox="0 0 254 56" fill="none" xmlns="http://www.w3.org/2000/svg">
<path d="M20.5816 12.0347C20.3631 10.1885 19.5274 8.40405 18.0815 7.01628C14.7672 3.83518 9.50156 3.94318 6.32045 7.25752C3.13934 10.5719 3.24735 15.8375 6.56169 19.0186C8.20529 20.5961 10.3287 21.3648 12.4399 21.3347" stroke="white" stroke-width="2"/>
<circle cx="12.3402" cy="13.2914" r="1.57843" transform="rotate(19.0193 12.3402 13.2914)" fill="white"/>
<circle cx="12.3402" cy="2.00664" r="1.57843" transform="rotate(19.0193 12.3402 2.00664)" fill="white"/>
<path d="M13.7804 9.11307L13.5441 12.7047L11.7534 12.0874L13.7804 9.11307Z" fill="white"/>
<path d="M6.23579 14.5165L11.3025 12.7451L11.6567 14.2222L6.23579 14.5165Z" fill="white"/>
<path d="M38.12 15.728V41H31.964V30.596H22.388V41H16.232V15.728H22.388V25.628H31.964V15.728H38.12ZM51.708 41.288C49.74 41.288 47.964 40.868 46.38 40.028C44.82 39.188 43.584 37.988 42.672 36.428C41.784 34.868 41.34 33.044 41.34 30.956C41.34 28.892 41.796 27.08 42.708 25.52C43.62 23.936 44.868 22.724 46.452 21.884C48.036 21.044 49.812 20.624 51.78 20.624C53.748 20.624 55.524 21.044 57.108 21.884C58.692 22.724 59.94 23.936 60.852 25.52C61.764 27.08 62.22 28.892 62.22 30.956C62.22 33.02 61.752 34.844 60.816 36.428C59.904 37.988 58.644 39.188 57.036 40.028C55.452 40.868 53.676 41.288 51.708 41.288ZM51.708 35.96C52.884 35.96 53.88 35.528 54.696 34.664C55.536 33.8 55.956 32.564 55.956 30.956C55.956 29.348 55.548 28.112 54.732 27.248C53.94 26.384 52.956 25.952 51.78 25.952C50.58 25.952 49.584 26.384 48.792 27.248C48 28.088 47.604 29.324 47.604 30.956C47.604 32.564 47.988 33.8 48.756 34.664C49.548 35.528 50.532 35.96 51.708 35.96ZM85.3219 20.912V41H79.1659V38.264C78.5419 39.152 77.6899 39.872 76.6099 40.424C75.5539 40.952 74.3779 41.216 73.0819 41.216C71.5459 41.216 70.1899 40.88 69.0139 40.208C67.8379 39.512 66.9259 38.516 66.2779 37.22C65.6299 35.924 65.3059 34.4 65.3059 32.648V20.912H71.4259V31.82C71.4259 33.164 71.7739 34.208 72.4699 34.952C73.1659 35.696 74.1019 36.068 75.2779 36.068C76.4779 36.068 77.4259 35.696 78.1219 34.952C78.8179 34.208 79.1659 33.164 79.1659 31.82V20.912H85.3219ZM95.8997 24.26C96.6197 23.156 97.5197 22.292 98.5997 21.668C99.6797 21.02 100.88 20.696 102.2 20.696V27.212H100.508C98.9717 27.212 97.8197 27.548 97.0517 28.22C96.2837 28.868 95.8997 30.02 95.8997 31.676V41H89.7437V20.912H95.8997V24.26ZM111.298 14.36V41H105.142V14.36H111.298ZM136.279 20.912L123.679 50.54H117.055L121.663 40.316L113.491 20.912H120.367L125.011 33.476L129.619 20.912H136.279ZM154.957 15.728V20.66H144.661V25.988H152.365V30.776H144.661V41H138.505V15.728H154.957ZM161.289 18.824C160.209 18.824 159.321 18.512 158.625 17.888C157.953 17.24 157.617 16.448 157.617 15.512C157.617 14.552 157.953 13.76 158.625 13.136C159.321 12.488 160.209 12.164 161.289 12.164C162.345 12.164 163.209 12.488 163.881 13.136C164.577 13.76 164.925 14.552 164.925 15.512C164.925 16.448 164.577 17.24 163.881 17.888C163.209 18.512 162.345 18.824 161.289 18.824ZM164.349 20.912V41H158.193V20.912H164.349ZM181.05 20.696C183.402 20.696 185.274 21.464 186.666 23C188.082 24.512 188.79 26.6 188.79 29.264V41H182.67V30.092C182.67 28.748 182.322 27.704 181.626 26.96C180.93 26.216 179.994 25.844 178.818 25.844C177.642 25.844 176.706 26.216 176.01 26.96C175.314 27.704 174.966 28.748 174.966 30.092V41H168.81V20.912H174.966V23.576C175.59 22.688 176.43 21.992 177.486 21.488C178.542 20.96 179.73 20.696 181.05 20.696ZM191.844 30.92C191.844 28.856 192.228 27.044 192.996 25.484C193.788 23.924 194.856 22.724 196.2 21.884C197.544 21.044 199.044 20.624 200.7 20.624C202.02 20.624 203.22 20.9 204.3 21.452C205.404 22.004 206.268 22.748 206.892 23.684V14.36H213.048V41H206.892V38.12C206.316 39.08 205.488 39.848 204.408 40.424C203.352 41 202.116 41.288 200.7 41.288C199.044 41.288 197.544 40.868 196.2 40.028C194.856 39.164 193.788 37.952 192.996 36.392C192.228 34.808 191.844 32.984 191.844 30.92ZM206.892 30.956C206.892 29.42 206.46 28.208 205.596 27.32C204.756 26.432 203.724 25.988 202.5 25.988C201.276 25.988 200.232 26.432 199.368 27.32C198.528 28.184 198.108 29.384 198.108 30.92C198.108 32.456 198.528 33.68 199.368 34.592C200.232 35.48 201.276 35.924 202.5 35.924C203.724 35.924 204.756 35.48 205.596 34.592C206.46 33.704 206.892 32.492 206.892 30.956ZM236.438 30.632C236.438 31.208 236.402 31.808 236.33 32.432H222.398C222.494 33.68 222.89 34.64 223.586 35.312C224.306 35.96 225.182 36.284 226.214 36.284C227.75 36.284 228.818 35.636 229.418 34.34H235.97C235.634 35.66 235.022 36.848 234.134 37.904C233.27 38.96 232.178 39.788 230.858 40.388C229.538 40.988 228.062 41.288 226.43 41.288C224.462 41.288 222.71 40.868 221.174 40.028C219.638 39.188 218.438 37.988 217.574 36.428C216.71 34.868 216.278 33.044 216.278 30.956C216.278 28.868 216.698 27.044 217.538 25.484C218.402 23.924 219.602 22.724 221.138 21.884C222.674 21.044 224.438 20.624 226.43 20.624C228.374 20.624 230.102 21.032 231.614 21.848C233.126 22.664 234.302 23.828 235.142 25.34C236.006 26.852 236.438 28.616 236.438 30.632ZM230.138 29.012C230.138 27.956 229.778 27.116 229.058 26.492C228.338 25.868 227.438 25.556 226.358 25.556C225.326 25.556 224.45 25.856 223.73 26.456C223.034 27.056 222.602 27.908 222.434 29.012H230.138ZM245.841 24.26C246.561 23.156 247.461 22.292 248.541 21.668C249.621 21.02 250.821 20.696 252.141 20.696V27.212H250.449C248.913 27.212 247.761 27.548 246.993 28.22C246.225 28.868 245.841 30.02 245.841 31.676V41H239.685V20.912H245.841V24.26Z" fill="white"/>
</svg>
