<svg width="237" height="39" viewBox="0 0 237 39" fill="none" xmlns="http://www.w3.org/2000/svg">
<path d="M22.12 3.728V29H15.964V18.596H6.388V29H0.232V3.728H6.388V13.628H15.964V3.728H22.12ZM35.708 29.288C33.74 29.288 31.964 28.868 30.38 28.028C28.82 27.188 27.584 25.988 26.672 24.428C25.784 22.868 25.34 21.044 25.34 18.956C25.34 16.892 25.796 15.08 26.708 13.52C27.62 11.936 28.868 10.724 30.452 9.884C32.036 9.044 33.812 8.624 35.78 8.624C37.748 8.624 39.524 9.044 41.108 9.884C42.692 10.724 43.94 11.936 44.852 13.52C45.764 15.08 46.22 16.892 46.22 18.956C46.22 21.02 45.752 22.844 44.816 24.428C43.904 25.988 42.644 27.188 41.036 28.028C39.452 28.868 37.676 29.288 35.708 29.288ZM35.708 23.96C36.884 23.96 37.88 23.528 38.696 22.664C39.536 21.8 39.956 20.564 39.956 18.956C39.956 17.348 39.548 16.112 38.732 15.248C37.94 14.384 36.956 13.952 35.78 13.952C34.58 13.952 33.584 14.384 32.792 15.248C32 16.088 31.604 17.324 31.604 18.956C31.604 20.564 31.988 21.8 32.756 22.664C33.548 23.528 34.532 23.96 35.708 23.96ZM69.3219 8.912V29H63.1659V26.264C62.5419 27.152 61.6899 27.872 60.6099 28.424C59.5539 28.952 58.3779 29.216 57.0819 29.216C55.5459 29.216 54.1899 28.88 53.0139 28.208C51.8379 27.512 50.9259 26.516 50.2779 25.22C49.6299 23.924 49.3059 22.4 49.3059 20.648V8.912H55.4259V19.82C55.4259 21.164 55.7739 22.208 56.4699 22.952C57.1659 23.696 58.1019 24.068 59.2779 24.068C60.4779 24.068 61.4259 23.696 62.1219 22.952C62.8179 22.208 63.1659 21.164 63.1659 19.82V8.912H69.3219ZM79.8997 12.26C80.6197 11.156 81.5197 10.292 82.5997 9.668C83.6797 9.02 84.8797 8.696 86.1997 8.696V15.212H84.5077C82.9717 15.212 81.8197 15.548 81.0517 16.22C80.2837 16.868 79.8997 18.02 79.8997 19.676V29H73.7437V8.912H79.8997V12.26ZM95.2982 2.36V29H89.1422V2.36H95.2982ZM120.279 8.912L107.679 38.54H101.055L105.663 28.316L97.4913 8.912H104.367L109.011 21.476L113.619 8.912H120.279Z" fill="#16395F"/>
<path d="M138.957 3.728V8.66H128.661V13.988H136.365V18.776H128.661V29H122.505V3.728H138.957ZM145.289 6.824C144.209 6.824 143.321 6.512 142.625 5.888C141.953 5.24 141.617 4.448 141.617 3.512C141.617 2.552 141.953 1.76 142.625 1.136C143.321 0.487998 144.209 0.163998 145.289 0.163998C146.345 0.163998 147.209 0.487998 147.881 1.136C148.577 1.76 148.925 2.552 148.925 3.512C148.925 4.448 148.577 5.24 147.881 5.888C147.209 6.512 146.345 6.824 145.289 6.824ZM148.349 8.912V29H142.193V8.912H148.349ZM165.05 8.696C167.402 8.696 169.274 9.464 170.666 11C172.082 12.512 172.79 14.6 172.79 17.264V29H166.67V18.092C166.67 16.748 166.322 15.704 165.626 14.96C164.93 14.216 163.994 13.844 162.818 13.844C161.642 13.844 160.706 14.216 160.01 14.96C159.314 15.704 158.966 16.748 158.966 18.092V29H152.81V8.912H158.966V11.576C159.59 10.688 160.43 9.992 161.486 9.488C162.542 8.96 163.73 8.696 165.05 8.696ZM175.844 18.92C175.844 16.856 176.228 15.044 176.996 13.484C177.788 11.924 178.856 10.724 180.2 9.884C181.544 9.044 183.044 8.624 184.7 8.624C186.02 8.624 187.22 8.9 188.3 9.452C189.404 10.004 190.268 10.748 190.892 11.684V2.36H197.048V29H190.892V26.12C190.316 27.08 189.488 27.848 188.408 28.424C187.352 29 186.116 29.288 184.7 29.288C183.044 29.288 181.544 28.868 180.2 28.028C178.856 27.164 177.788 25.952 176.996 24.392C176.228 22.808 175.844 20.984 175.844 18.92ZM190.892 18.956C190.892 17.42 190.46 16.208 189.596 15.32C188.756 14.432 187.724 13.988 186.5 13.988C185.276 13.988 184.232 14.432 183.368 15.32C182.528 16.184 182.108 17.384 182.108 18.92C182.108 20.456 182.528 21.68 183.368 22.592C184.232 23.48 185.276 23.924 186.5 23.924C187.724 23.924 188.756 23.48 189.596 22.592C190.46 21.704 190.892 20.492 190.892 18.956ZM220.438 18.632C220.438 19.208 220.402 19.808 220.33 20.432H206.398C206.494 21.68 206.89 22.64 207.586 23.312C208.306 23.96 209.182 24.284 210.214 24.284C211.75 24.284 212.818 23.636 213.418 22.34H219.97C219.634 23.66 219.022 24.848 218.134 25.904C217.27 26.96 216.178 27.788 214.858 28.388C213.538 28.988 212.062 29.288 210.43 29.288C208.462 29.288 206.71 28.868 205.174 28.028C203.638 27.188 202.438 25.988 201.574 24.428C200.71 22.868 200.278 21.044 200.278 18.956C200.278 16.868 200.698 15.044 201.538 13.484C202.402 11.924 203.602 10.724 205.138 9.884C206.674 9.044 208.438 8.624 210.43 8.624C212.374 8.624 214.102 9.032 215.614 9.848C217.126 10.664 218.302 11.828 219.142 13.34C220.006 14.852 220.438 16.616 220.438 18.632ZM214.138 17.012C214.138 15.956 213.778 15.116 213.058 14.492C212.338 13.868 211.438 13.556 210.358 13.556C209.326 13.556 208.45 13.856 207.73 14.456C207.034 15.056 206.602 15.908 206.434 17.012H214.138ZM229.841 12.26C230.561 11.156 231.461 10.292 232.541 9.668C233.621 9.02 234.821 8.696 236.141 8.696V15.212H234.449C232.913 15.212 231.761 15.548 230.993 16.22C230.225 16.868 229.841 18.02 229.841 19.676V29H223.685V8.912H229.841V12.26Z" fill="#358FB2"/>
</svg>
