<svg width="487" height="346" viewBox="0 0 487 346" fill="none" xmlns="http://www.w3.org/2000/svg">
<path d="M487 195.693H83.0835V342.541H487V195.693Z" fill="#3F3D56"/>
<path opacity="0.1" d="M192.043 195.693L83.0835 270.495V227.176L128.942 195.693H192.043Z" fill="black"/>
<path opacity="0.1" d="M299.722 195.693L197.808 265.661L194.159 268.169L85.8251 342.541H83.0835V301.099L152.891 253.18L155.226 251.575L236.626 195.693H299.722Z" fill="black"/>
<path d="M94.9558 269.58L93.8687 268.217C93.9767 268.131 104.872 259.539 122.274 254.624C132.355 251.751 142.861 250.664 153.316 251.412C166.283 252.355 179.177 256.182 191.638 262.787L190.822 264.328C163.099 249.633 138.501 251.852 122.748 256.301C105.68 261.122 95.0611 269.496 94.9558 269.58Z" fill="#F2F2F2"/>
<path d="M200.294 268.899C195.091 268 188.207 267.624 183.249 268.581L190.005 262.92L191.577 254.248C193.201 259.03 196.936 264.825 200.294 268.899Z" fill="#F2F2F2"/>
<path d="M273.257 286.619C264.93 286.609 256.644 285.45 248.634 283.174C231.232 278.259 220.337 269.666 220.229 269.58L221.315 268.218C221.421 268.302 232.093 276.706 249.179 281.516C264.917 285.948 289.49 288.149 317.181 273.469L317.997 275.01C305.536 281.615 292.643 285.442 279.676 286.386C277.539 286.541 275.4 286.619 273.257 286.619Z" fill="#F2F2F2"/>
<path d="M326.654 268.898C323.297 272.973 319.561 278.768 317.938 283.551L316.365 274.877L309.609 269.218C314.568 270.175 321.452 269.799 326.654 268.898Z" fill="#F2F2F2"/>
<path d="M352.469 269.58L351.382 268.218C351.49 268.132 362.385 259.539 379.788 254.624C389.869 251.752 400.375 250.665 410.83 251.412C423.797 252.355 436.69 256.183 449.151 262.788L448.335 264.328C420.613 249.633 396.015 251.851 380.261 256.301C363.194 261.122 352.575 269.496 352.469 269.58Z" fill="#F2F2F2"/>
<path d="M457.807 268.899C452.605 268 445.721 267.624 440.762 268.581L447.519 262.92L449.09 254.248C450.714 259.03 454.449 264.825 457.807 268.899Z" fill="#F2F2F2"/>
<path d="M348.875 235.782H320.553V236.653H348.875V235.782Z" fill="#6C63FF"/>
<path d="M348.875 244.497H320.553V245.368H348.875V244.497Z" fill="#6C63FF"/>
<path d="M348.875 253.212H320.553V254.083H348.875V253.212Z" fill="#6C63FF"/>
<path d="M221.644 287.2H193.322V288.072H221.644V287.2Z" fill="#6C63FF"/>
<path d="M221.644 295.915H193.322V296.787H221.644V295.915Z" fill="#6C63FF"/>
<path d="M221.644 304.63H193.322V305.501H221.644V304.63Z" fill="#6C63FF"/>
<path d="M480.028 287.2H451.706V288.072H480.028V287.2Z" fill="#6C63FF"/>
<path d="M480.028 295.915H451.706V296.787H480.028V295.915Z" fill="#6C63FF"/>
<path d="M480.028 304.63H451.706V305.501H480.028V304.63Z" fill="#6C63FF"/>
<path d="M208.136 279.793C211.264 279.793 213.801 277.256 213.801 274.128C213.801 270.999 211.264 268.463 208.136 268.463C205.008 268.463 202.472 270.999 202.472 274.128C202.472 277.256 205.008 279.793 208.136 279.793Z" fill="#6C63FF"/>
<path d="M334.932 271.949C338.06 271.949 340.596 269.413 340.596 266.284C340.596 263.156 338.06 260.62 334.932 260.62C331.804 260.62 329.268 263.156 329.268 266.284C329.268 269.413 331.804 271.949 334.932 271.949Z" fill="#6C63FF"/>
<path d="M465.649 279.793C468.778 279.793 471.314 277.256 471.314 274.128C471.314 270.999 468.778 268.463 465.649 268.463C462.521 268.463 459.985 270.999 459.985 274.128C459.985 277.256 462.521 279.793 465.649 279.793Z" fill="#6C63FF"/>
<path d="M151.258 156.26L142.821 147.214L151.866 138.777L160.303 147.823L151.258 156.26ZM144.166 147.261L151.305 154.915L158.958 147.776L151.819 140.122L144.166 147.261Z" fill="#3F3D56"/>
<path d="M354.255 50.2185L345.818 41.1725L354.863 32.7351L363.3 41.7811L354.255 50.2185ZM347.163 41.2193L354.302 48.8736L361.956 41.7343L354.817 34.08L347.163 41.2193Z" fill="#3F3D56"/>
<path d="M457.864 196.426H445.495V184.056H457.864V196.426ZM446.446 195.475H456.913V185.008H446.446L446.446 195.475Z" fill="#3F3D56"/>
<path d="M274.665 245.152C278.153 245.152 280.98 242.325 280.98 238.837C280.98 235.349 278.153 232.521 274.665 232.521C271.177 232.521 268.35 235.349 268.35 238.837C268.35 242.325 271.177 245.152 274.665 245.152Z" fill="#6C63FF"/>
<path d="M274.665 257.081C271.057 257.081 267.529 256.011 264.529 254.006C261.529 252.002 259.191 249.152 257.81 245.818C256.429 242.485 256.068 238.816 256.772 235.277C257.476 231.738 259.213 228.487 261.765 225.936C264.316 223.384 267.567 221.647 271.106 220.943C274.645 220.239 278.313 220.6 281.646 221.981C284.98 223.362 287.829 225.7 289.834 228.7C291.838 231.701 292.908 235.228 292.908 238.837C292.903 243.674 290.979 248.311 287.559 251.731C284.139 255.152 279.502 257.076 274.665 257.081ZM274.665 221.995C271.334 221.995 268.078 222.983 265.309 224.834C262.54 226.684 260.381 229.314 259.107 232.392C257.832 235.469 257.499 238.855 258.148 242.122C258.798 245.389 260.402 248.39 262.757 250.745C265.112 253.1 268.113 254.704 271.38 255.354C274.646 256.004 278.032 255.67 281.109 254.396C284.187 253.121 286.817 250.962 288.667 248.193C290.517 245.423 291.505 242.167 291.505 238.837C291.5 234.372 289.724 230.091 286.567 226.934C283.41 223.777 279.13 222.001 274.665 221.995Z" fill="#F2F2F2"/>
<path d="M291.751 86.7299H239.138V148.03H291.751V86.7299Z" fill="#F2F2F2"/>
<path d="M273.863 239.648L273.132 238.934C276.495 235.121 279.043 230.663 280.622 225.831C283.107 218.35 284.322 206.537 275.99 192.737C267.466 178.618 267.082 167.15 268.261 160.015C269.544 152.253 272.818 147.901 272.957 147.72L273.768 148.34C273.736 148.383 270.491 152.711 269.259 160.242C268.122 167.195 268.519 178.386 276.864 192.209C285.409 206.361 284.143 218.503 281.577 226.196C278.796 234.532 274.064 239.443 273.863 239.648Z" fill="#3F3D56"/>
<path d="M312.184 148.541H238.627V74.9803H312.184V148.541ZM239.649 147.519H311.162V76.002H239.649V147.519Z" fill="#3F3D56"/>
<path d="M298.902 96.4358H253.951V97.4575H298.902V96.4358Z" fill="#3F3D56"/>
<path d="M298.902 107.674H253.951V108.696H298.902V107.674Z" fill="#3F3D56"/>
<path d="M298.902 118.912H253.951V119.934H298.902V118.912Z" fill="#3F3D56"/>
<path d="M59.0702 297.601L57.2227 315.465L67.694 314.233L68.9258 299.449L59.0702 297.601Z" fill="#FFB9B9"/>
<path d="M31.3514 162.079C31.3514 162.079 -22.2384 213.824 11.6402 229.84H22.1117C22.1117 229.84 44.9028 192.264 55.9903 192.88L59.0702 228.608L57.2223 300.681L70.7738 301.297C70.7738 301.297 78.7814 264.953 78.1655 244.624L92.3329 169.472L31.3514 162.079Z" fill="#2F2E41"/>
<path d="M14.7202 227.376L22.1119 229.84C22.1119 229.84 51.0628 223.064 52.9107 223.68L58.6422 223.64L58.4545 208.896H33.8154L14.7202 227.376Z" fill="#2F2E41"/>
<path d="M68.9261 311.769C68.9261 311.769 57.8386 306.841 55.9907 311.769C54.1428 316.697 54.7587 330.865 54.7587 330.865C54.7587 330.865 57.2226 335.177 55.9907 340.105C54.7587 345.033 60.9185 347.497 68.9261 345.033C76.9338 342.569 76.9338 336.409 76.9338 336.409L68.9261 311.769Z" fill="#2F2E41"/>
<path d="M78.1657 207.664C78.1657 207.664 86.7893 202.736 86.1733 210.128C85.5574 217.52 82.4775 224.296 82.4775 224.296C82.4775 224.296 90.4852 245.24 82.4775 247.088C74.4698 248.936 68.3101 244.624 68.3101 241.544C68.3101 238.464 78.1657 207.664 78.1657 207.664Z" fill="#2F2E41"/>
<path d="M51.0625 38.8782L52.2948 62.2866L62.7661 71.5265L74.4697 54.8947V38.2625L51.0625 38.8782Z" fill="#FFB9B9"/>
<path d="M59.0702 62.2864L52.0187 57.0464L47.3667 64.1345L26.4235 76.4546L38.743 108.487L39.359 139.903C39.359 139.903 16.5679 163.311 30.1194 166.392C43.6708 169.472 91.7169 176.248 94.1808 170.704C96.6447 165.159 91.1009 107.871 91.1009 107.871L92.9488 59.2064L74.4696 52.5249L59.0702 62.2864Z" fill="#6C63FF"/>
<path d="M21.4958 101.301C21.4958 101.301 16.568 136.207 25.8077 136.207C31.295 136.226 36.7339 135.18 41.823 133.127L34.4313 114.031L37.5112 101.095L21.4958 101.301Z" fill="#FFB9B9"/>
<path d="M35.6632 131.895L42.4389 133.127C42.4389 133.127 62.1501 120.807 63.3821 120.191C64.614 119.575 43.6708 109.103 43.6708 109.103L29.5034 114.647L35.6632 131.895Z" fill="#FFB9B9"/>
<path opacity="0.1" d="M43.6709 109.103L34.7758 112.584L37.5112 101.095L21.4958 101.301C21.4958 101.301 16.568 136.207 25.8077 136.207C31.295 136.226 36.734 135.18 41.823 133.127L41.7764 133.006L42.439 133.127C42.439 133.127 62.1502 120.807 63.3821 120.191C64.6141 119.575 43.6709 109.103 43.6709 109.103Z" fill="black"/>
<path d="M65.3127 50.5582C75.0268 50.5582 82.9017 42.6829 82.9017 32.9683C82.9017 23.2536 75.0268 15.3783 65.3127 15.3783C55.5985 15.3783 47.7236 23.2536 47.7236 32.9683C47.7236 42.6829 55.5985 50.5582 65.3127 50.5582Z" fill="#FFB9B9"/>
<path d="M49.7618 13.1241L46.3252 11.7482C46.3252 11.7482 53.5108 3.83682 63.5083 4.52479L60.6964 1.429C60.6964 1.429 67.5697 -1.32276 73.8181 5.90065C77.1027 9.69785 80.9031 14.1612 83.2723 19.1892H86.9527L85.4166 22.5716L90.7928 25.954L85.2747 25.3464C85.7974 28.2665 85.6185 31.2691 84.7527 34.1065L84.9007 36.7799C84.9007 36.7799 78.5043 26.883 78.5043 25.5071V28.9468C78.5043 28.9468 75.0677 25.8511 75.0677 23.7872L73.1932 26.1951L72.256 22.4113L60.6964 26.1951L62.571 23.0993L55.3853 24.1312L58.1972 20.3475C58.1972 20.3475 50.0743 24.8192 49.7618 28.6029C49.4494 32.3866 45.388 37.2022 45.388 37.2022L43.5135 33.7625C43.5135 33.7625 40.7016 18.2837 49.7618 13.1241Z" fill="#2F2E41"/>
<path d="M80.6293 90.6227C80.6293 90.6227 75.7015 96.1667 75.7015 104.175L43.0548 102.943C43.0548 102.943 34.4312 101.711 34.4312 107.871V114.031C34.4312 114.031 38.743 112.183 41.2069 114.031C43.6708 115.879 70.1577 131.895 83.0932 125.735C96.0286 119.575 99.1085 95.5507 99.1085 95.5507C99.1085 95.5507 87.405 85.6946 80.6293 90.6227Z" fill="#FFB9B9"/>
<path d="M87.9686 61.08L92.8964 60.464C92.8964 60.464 102.752 61.696 101.52 80.7922C100.288 99.8884 99.6722 101.12 99.6722 101.12C99.6722 101.12 86.7367 89.4163 77.4971 94.9603L87.9686 61.08Z" fill="#6C63FF"/>
<path d="M29.5711 77.5244H27.1072C23.915 81.5569 22.1785 86.5494 22.1794 91.6926C22.1228 97.2011 21.3989 102.682 20.0234 108.017L39.4267 104.629L29.5711 77.5244Z" fill="#6C63FF"/>
<path d="M335.349 154.444H334.394V179.249H335.349V154.444Z" fill="#3F3D56"/>
<path d="M334.871 148.679C335.878 151.392 337.595 154.758 339.414 156.844L334.871 155.201L330.329 156.844C332.148 154.758 333.866 151.392 334.871 148.679Z" fill="#3F3D56"/>
<path d="M220.715 132.949H219.76V157.754H220.715V132.949Z" fill="#3F3D56"/>
<path d="M220.238 127.184C221.245 129.897 222.962 133.263 224.781 135.349L220.238 133.706L215.696 135.349C217.515 133.263 219.232 129.897 220.238 127.184Z" fill="#3F3D56"/>
<path d="M379.292 113.843H378.337V138.648H379.292V113.843Z" fill="#3F3D56"/>
<path d="M378.815 108.077C379.821 110.79 381.539 114.156 383.358 116.243L378.815 114.599L374.272 116.243C376.092 114.156 377.809 110.79 378.815 108.077Z" fill="#3F3D56"/>
</svg>
