<svg width="502" height="339" viewBox="0 0 502 339" fill="none" xmlns="http://www.w3.org/2000/svg">
<g clip-path="url(#clip0)">
<path d="M33.7834 255.455C31.3996 255.455 29.011 255.553 26.6783 255.751L26.3388 255.78C10.866 257.146 -0.451613 265.07 0.0138496 274.212L0.103834 275.865C0.163175 276.91 0.2264 278.034 0.27844 279.28C0.306627 279.895 1.14664 280.367 2.19188 280.367H382.785C409.619 280.204 436.355 280 462.247 279.758C467.103 279.768 471.956 279.517 476.785 279.006C483.981 278.156 488.975 276.47 492.055 273.853H492.056C495.886 270.607 496.006 266.52 495.775 261.903C495.303 252.579 494.835 242.784 494.368 233.018C493.956 224.412 493.545 215.828 493.135 207.611C492.881 202.734 492.317 198.429 487.967 195.139C483.253 191.581 474.656 189.778 462.414 189.778C462.266 189.778 462.119 189.778 461.969 189.778C423.603 189.915 385.589 203.088 367.376 222.558C365.278 224.8 363.324 227.2 361.434 229.522C358.641 232.951 355.754 236.497 352.308 239.668C350.443 241.408 348.425 242.979 346.28 244.36C346.132 244.462 345.963 244.572 345.784 244.676C345.375 244.942 344.947 245.199 344.529 245.428C342.086 246.837 339.511 248.006 336.841 248.918L336.572 249.008C336.369 249.081 336.149 249.153 335.93 249.219C334.388 249.713 332.786 250.141 331.181 250.486C324.239 252.014 316.344 252.381 307.718 251.574C299.797 250.814 291.977 249.222 284.389 246.827C276.401 244.306 268.924 241.163 261.694 238.124C258.518 236.788 255.233 235.408 251.952 234.1C251.335 233.853 250.729 233.613 250.113 233.372C246.106 231.813 242.474 230.525 239.008 229.435C230.421 226.724 221.532 225.08 212.543 224.54C203.001 224.019 194.592 225.002 187.556 227.458C185.616 228.132 183.728 228.945 181.904 229.889C173.571 234.211 168.433 240.589 163.465 246.757C157.285 254.429 150.895 262.363 138.276 266.475C123.715 271.225 102.461 269.252 87.4241 265.82C82.6964 264.741 77.9746 263.5 73.408 262.299C71.5636 261.813 69.7179 261.332 67.871 260.853C64.2416 259.917 61.2713 259.2 58.5232 258.595L57.654 258.402C57.1706 258.297 56.6866 258.193 56.1939 258.093C52.9298 257.408 49.8904 256.87 46.8972 256.446L46.189 256.343C44.7693 256.156 43.442 256.001 42.1394 255.87L41.6195 255.819C39.0684 255.576 36.4283 255.455 33.7834 255.455Z" fill="#F2F2F2"/>
<path d="M427.339 265.659C438.048 256.022 453.977 251.177 467.339 256.581C453.633 264.179 443.06 276.374 437.491 291.007C435.364 296.658 433.588 303.165 428.356 306.19C425.1 308.073 421.05 308.165 417.4 307.256C413.75 306.347 410.404 304.526 407.104 302.722L406.165 302.701C410.38 288.935 416.63 275.295 427.339 265.659Z" fill="#E6E6E6"/>
<path d="M467.264 256.873C455.43 258.4 444.379 263.612 435.68 271.768C433.776 273.49 432.156 275.502 430.88 277.728C429.706 279.937 429.147 282.419 429.259 284.917C429.317 287.248 429.646 289.626 429.136 291.931C428.857 293.106 428.332 294.21 427.596 295.169C426.86 296.128 425.929 296.921 424.865 297.496C422.25 298.997 419.251 299.47 416.302 299.831C413.028 300.231 409.621 300.596 406.786 302.43C406.443 302.652 406.118 302.107 406.461 301.885C411.392 298.694 417.631 299.855 422.934 297.726C425.408 296.732 427.597 294.988 428.372 292.351C429.049 290.045 428.712 287.593 428.633 285.233C428.487 282.798 428.941 280.364 429.955 278.145C431.114 275.861 432.654 273.79 434.508 272.022C438.62 267.975 443.344 264.598 448.506 262.016C454.381 259.037 460.723 257.083 467.258 256.239C467.662 256.187 467.666 256.822 467.264 256.873H467.264Z" fill="white"/>
<path d="M438.326 268.977C437.154 267.334 436.605 265.328 436.777 263.318C436.949 261.308 437.831 259.424 439.265 258.004C439.557 257.717 440.016 258.156 439.725 258.442C438.386 259.763 437.565 261.518 437.409 263.39C437.252 265.262 437.771 267.128 438.872 268.652C439.111 268.983 438.564 269.306 438.326 268.977V268.977Z" fill="white"/>
<path d="M429.074 283.739C433.141 284.458 437.329 283.621 440.805 281.394C441.149 281.173 441.475 281.718 441.131 281.938C437.51 284.249 433.149 285.112 428.919 284.354C428.515 284.282 428.673 283.667 429.074 283.739Z" fill="white"/>
<path d="M454.432 259.876C454.753 260.607 455.251 261.246 455.88 261.736C456.51 262.227 457.251 262.554 458.038 262.688C458.442 262.755 458.284 263.37 457.883 263.303C457.014 263.151 456.195 262.789 455.499 262.248C454.802 261.708 454.249 261.005 453.887 260.202C453.846 260.129 453.835 260.043 453.856 259.962C453.876 259.882 453.927 259.812 453.997 259.767C454.069 259.724 454.156 259.712 454.237 259.732C454.319 259.753 454.389 259.805 454.432 259.876Z" fill="white"/>
<path d="M482.052 303.052C481.798 303.017 481.545 302.982 481.288 302.951C477.879 302.499 474.439 302.325 471.002 302.429C470.736 302.433 470.466 302.441 470.201 302.453C461.923 302.793 453.779 304.664 446.185 307.973C443.165 309.292 440.249 310.839 437.463 312.6C433.616 315.032 429.639 317.975 425.339 318.967C424.891 319.075 424.437 319.156 423.98 319.209L406.212 303.846C406.189 303.791 406.162 303.74 406.139 303.684L405.402 303.103C405.539 303.002 405.684 302.901 405.821 302.8C405.9 302.741 405.984 302.686 406.063 302.627C406.117 302.589 406.172 302.551 406.219 302.513C406.237 302.5 406.255 302.488 406.269 302.479C406.316 302.442 406.363 302.412 406.407 302.378C407.213 301.808 408.025 301.242 408.843 300.681C408.846 300.677 408.846 300.677 408.854 300.677C415.042 296.342 421.723 292.756 428.757 289.993C428.968 289.913 429.183 289.83 429.402 289.757C432.57 288.581 435.828 287.665 439.146 287.019C440.963 286.671 442.797 286.415 444.641 286.253C449.405 285.841 454.204 286.181 458.862 287.259C468.148 289.409 476.642 294.501 481.673 302.442C481.802 302.645 481.927 302.845 482.052 303.052Z" fill="#E6E6E6"/>
<path d="M481.817 303.243C471.448 297.348 459.482 294.865 447.619 296.147C445.06 296.378 442.554 297.01 440.192 298.02C437.923 299.078 435.98 300.724 434.564 302.786C433.204 304.682 432.034 306.778 430.236 308.311C429.305 309.082 428.22 309.648 427.055 309.972C425.889 310.295 424.667 310.368 423.471 310.187C420.478 309.814 417.798 308.388 415.226 306.904C412.37 305.255 409.43 303.498 406.061 303.258C405.653 303.229 405.722 302.598 406.13 302.627C411.991 303.044 416.273 307.723 421.79 309.21C424.365 309.904 427.164 309.828 429.373 308.188C431.304 306.754 432.513 304.593 433.873 302.662C435.225 300.63 437.055 298.96 439.203 297.797C441.505 296.67 443.983 295.943 446.53 295.646C452.253 294.886 458.06 295.03 463.739 296.072C470.226 297.225 476.468 299.478 482.195 302.733C482.549 302.934 482.169 303.443 481.817 303.243V303.243Z" fill="white"/>
<path d="M451.414 295.51C451.469 293.493 452.24 291.561 453.589 290.06C454.938 288.558 456.778 287.585 458.78 287.313C459.185 287.259 459.288 287.885 458.882 287.939C457.017 288.189 455.304 289.096 454.05 290.497C452.796 291.898 452.086 293.7 452.046 295.578C452.037 295.986 451.405 295.916 451.414 295.51V295.51Z" fill="white"/>
<path d="M435.126 301.734C437.939 304.753 441.788 306.602 445.907 306.913C446.315 306.944 446.246 307.575 445.838 307.544C441.553 307.213 437.551 305.28 434.631 302.131C434.353 301.831 434.849 301.435 435.126 301.734H435.126Z" fill="white"/>
<path d="M469.761 297.926C469.577 298.702 469.589 299.512 469.795 300.282C470.002 301.052 470.397 301.759 470.945 302.339C471.227 302.636 470.73 303.031 470.45 302.737C469.847 302.093 469.412 301.312 469.182 300.461C468.952 299.611 468.933 298.717 469.129 297.858C469.141 297.776 469.183 297.701 469.248 297.648C469.313 297.596 469.396 297.571 469.479 297.577C469.563 297.586 469.639 297.628 469.692 297.694C469.745 297.759 469.769 297.843 469.761 297.926Z" fill="white"/>
<path d="M146.995 275.243C155.764 261.961 171.451 252.354 187.247 254.421C174.705 266.356 166.795 282.335 164.915 299.533C164.215 306.168 164.127 313.621 159.375 318.31C156.417 321.228 152.111 322.452 147.954 322.494C143.797 322.535 139.711 321.516 135.679 320.504L134.669 320.742C135.342 304.848 138.226 288.524 146.995 275.243Z" fill="#E6E6E6"/>
<path d="M187.249 254.755C175.017 259.676 164.65 268.32 157.619 279.459C156.062 281.83 154.89 284.432 154.145 287.168C153.505 289.856 153.598 292.666 154.414 295.307C155.126 297.784 156.141 300.235 156.236 302.842C156.266 304.177 156.012 305.503 155.492 306.733C154.972 307.964 154.197 309.07 153.219 309.981C150.841 312.312 147.765 313.651 144.711 314.857C141.321 316.195 137.779 317.531 135.258 320.28C134.953 320.613 134.453 320.12 134.758 319.788C139.143 315.005 146.14 314.514 151.218 310.763C153.587 309.013 155.443 306.54 155.537 303.504C155.619 300.85 154.575 298.321 153.833 295.819C152.999 293.255 152.806 290.526 153.272 287.87C153.875 285.105 154.945 282.463 156.436 280.057C159.706 274.586 163.817 269.663 168.619 265.467C174.072 260.648 180.311 256.796 187.065 254.078C187.484 253.91 187.664 254.588 187.249 254.755L187.249 254.755Z" fill="white"/>
<path d="M159.671 275.739C157.96 274.307 156.814 272.315 156.438 270.117C156.062 267.92 156.48 265.66 157.618 263.742C157.85 263.355 158.464 263.696 158.232 264.084C157.168 265.868 156.779 267.973 157.133 270.018C157.488 272.064 158.563 273.916 160.164 275.24C160.512 275.528 160.017 276.026 159.671 275.739Z" fill="white"/>
<path d="M153.888 294.098C158.438 293.738 162.684 291.678 165.781 288.331C166.088 287.999 166.587 288.491 166.281 288.823C163.052 292.301 158.628 294.435 153.893 294.799C153.442 294.834 153.439 294.132 153.888 294.098H153.888Z" fill="white"/>
<path d="M174.362 261.532C174.909 262.223 175.619 262.769 176.428 263.119C177.238 263.469 178.123 263.612 179.002 263.537C179.452 263.497 179.455 264.198 179.007 264.238C178.035 264.317 177.059 264.157 176.163 263.772C175.268 263.388 174.48 262.79 173.869 262.031C173.805 261.964 173.77 261.876 173.769 261.784C173.768 261.692 173.803 261.603 173.865 261.535C173.931 261.47 174.02 261.432 174.113 261.432C174.206 261.431 174.295 261.467 174.362 261.532H174.362Z" fill="white"/>
<path d="M215.93 300.037C215.65 300.07 215.369 300.103 215.085 300.141C211.314 300.605 207.586 301.374 203.939 302.441C203.655 302.519 203.369 302.602 203.089 302.688C194.33 305.351 186.142 309.615 178.941 315.263C176.078 317.513 173.39 319.978 170.902 322.635C167.465 326.305 164.031 330.557 159.708 332.813C159.259 333.053 158.797 333.266 158.322 333.449L135.038 321.954C134.999 321.902 134.956 321.854 134.916 321.801L133.965 321.385C134.084 321.239 134.21 321.09 134.329 320.944C134.398 320.859 134.471 320.777 134.54 320.692C134.587 320.636 134.635 320.58 134.674 320.527C134.69 320.508 134.706 320.49 134.719 320.476C134.759 320.423 134.801 320.378 134.838 320.33C135.542 319.496 136.253 318.666 136.971 317.838C136.973 317.833 136.973 317.833 136.981 317.83C142.468 311.542 148.529 305.656 155.292 300.875C155.496 300.731 155.702 300.582 155.916 300.443C158.976 298.305 162.206 296.421 165.574 294.808C167.421 293.931 169.312 293.148 171.238 292.462C176.219 290.699 181.446 289.729 186.729 289.587C197.259 289.307 207.763 292.394 215.356 299.489C215.55 299.671 215.739 299.85 215.93 300.037Z" fill="#E6E6E6"/>
<path d="M215.732 300.306C202.999 296.881 189.509 297.55 177.179 302.217C174.506 303.175 172.002 304.547 169.758 306.283C167.626 308.045 166.006 310.345 165.065 312.944C164.14 315.35 163.472 317.917 161.977 320.056C161.195 321.14 160.193 322.046 159.036 322.716C157.879 323.385 156.594 323.803 155.264 323.942C151.959 324.373 148.695 323.594 145.531 322.72C142.017 321.75 138.383 320.688 134.713 321.367C134.268 321.449 134.167 320.756 134.611 320.673C140.995 319.491 146.878 323.305 153.194 323.364C156.141 323.391 159.114 322.531 161.019 320.164C162.685 318.094 163.376 315.447 164.292 313.003C165.172 310.455 166.664 308.16 168.637 306.32C170.786 304.475 173.233 303.009 175.874 301.984C181.784 299.581 188.035 298.122 194.399 297.659C201.658 297.09 208.962 297.765 215.994 299.655C216.429 299.773 216.164 300.422 215.732 300.306Z" fill="white"/>
<path d="M181.061 300.481C180.557 298.309 180.844 296.029 181.868 294.048C182.893 292.067 184.59 290.515 186.655 289.668C187.074 289.498 187.358 290.139 186.939 290.309C185.014 291.095 183.434 292.541 182.483 294.387C181.533 296.234 181.275 298.359 181.755 300.379C181.859 300.818 181.164 300.918 181.061 300.481H181.061Z" fill="white"/>
<path d="M165.374 311.663C169.224 314.111 173.856 315.019 178.347 314.208C178.792 314.127 178.894 314.821 178.45 314.902C173.775 315.737 168.956 314.782 164.955 312.226C164.574 311.982 164.995 311.42 165.374 311.663V311.663Z" fill="white"/>
<path d="M201.357 297.969C201.376 298.85 201.614 299.712 202.05 300.479C202.485 301.245 203.105 301.891 203.852 302.36C204.236 302.599 203.815 303.16 203.434 302.923C202.61 302.401 201.927 301.687 201.444 300.841C200.961 299.996 200.692 299.045 200.662 298.072C200.652 297.98 200.676 297.888 200.731 297.814C200.786 297.74 200.867 297.69 200.958 297.674C201.05 297.66 201.144 297.684 201.218 297.739C201.293 297.795 201.343 297.877 201.357 297.969V297.969Z" fill="white"/>
<path d="M209.405 175.668C209.987 175.09 210.435 174.391 210.717 173.622C210.999 172.852 211.109 172.03 211.039 171.213C210.968 170.397 210.72 169.606 210.31 168.895C209.9 168.185 209.34 167.573 208.668 167.103L217.832 122.813L207.945 125.928L200.571 168.775C199.855 169.954 199.596 171.356 199.845 172.713C200.094 174.07 200.833 175.289 201.922 176.139C203.011 176.989 204.374 177.41 205.753 177.323C207.132 177.236 208.432 176.647 209.405 175.668Z" fill="#FFB6B6"/>
<path d="M230.588 57.2787L224.463 52.662C224.463 52.662 219.06 52.28 218.103 62.0097C217.146 71.7394 211.155 109.082 211.155 109.082L201.783 152.428L214.756 155.271L224.795 108.493L234.843 76.2213L230.588 57.2787Z" fill="white"/>
<path d="M225.922 137.484L196.542 114.673C196.085 114.317 195.787 113.794 195.715 113.219C195.643 112.644 195.802 112.064 196.158 111.606L216.148 85.9347C216.504 85.4778 217.028 85.1808 217.604 85.1088C218.179 85.0369 218.76 85.1959 219.219 85.551L248.598 108.362C249.056 108.719 249.353 109.241 249.425 109.816C249.497 110.391 249.338 110.971 248.983 111.429L228.993 137.1C228.636 137.557 228.113 137.854 227.537 137.926C226.961 137.998 226.381 137.839 225.922 137.484Z" fill="#3F3D56"/>
<path d="M225.76 135.123L198.873 114.247C198.467 113.931 198.203 113.467 198.139 112.956C198.075 112.446 198.216 111.931 198.532 111.525L216.653 88.2521C216.97 87.8464 217.435 87.5827 217.946 87.5188C218.457 87.4549 218.973 87.5961 219.38 87.9114L246.267 108.788C246.674 109.104 246.938 109.568 247.002 110.079C247.066 110.589 246.924 111.104 246.609 111.51L228.487 134.783C228.17 135.189 227.705 135.452 227.194 135.516C226.683 135.58 226.167 135.439 225.76 135.123Z" fill="white"/>
<path d="M202.398 113.655C202.297 113.576 202.231 113.46 202.215 113.332C202.199 113.205 202.234 113.076 202.313 112.975L211.455 101.234C211.534 101.133 211.65 101.067 211.778 101.051C211.841 101.043 211.905 101.047 211.967 101.064C212.028 101.081 212.086 101.11 212.136 101.149C212.187 101.188 212.229 101.237 212.26 101.292C212.292 101.348 212.312 101.409 212.32 101.472C212.328 101.535 212.323 101.599 212.307 101.661C212.29 101.722 212.261 101.779 212.222 101.83L203.08 113.57C203.001 113.671 202.884 113.737 202.757 113.753C202.629 113.769 202.5 113.734 202.398 113.655Z" fill="#E4E4E4"/>
<path d="M203.913 114.832C203.812 114.753 203.746 114.637 203.73 114.509C203.714 114.381 203.749 114.253 203.828 114.151L212.97 102.411C213.049 102.309 213.165 102.243 213.293 102.227C213.421 102.211 213.55 102.247 213.652 102.326C213.753 102.405 213.819 102.521 213.835 102.648C213.851 102.776 213.816 102.905 213.737 103.006L204.595 114.747C204.516 114.848 204.4 114.914 204.272 114.93C204.144 114.946 204.015 114.911 203.913 114.832Z" fill="#E4E4E4"/>
<path d="M210.607 109.357C210.506 109.278 210.44 109.162 210.424 109.034C210.408 108.907 210.443 108.778 210.522 108.676L214.485 103.587C214.524 103.537 214.573 103.495 214.628 103.463C214.683 103.431 214.745 103.411 214.808 103.403C214.871 103.395 214.936 103.4 214.997 103.417C215.059 103.433 215.116 103.462 215.167 103.501C215.217 103.541 215.259 103.589 215.291 103.645C215.323 103.7 215.343 103.761 215.351 103.824C215.359 103.888 215.354 103.952 215.337 104.013C215.32 104.075 215.291 104.132 215.252 104.183L211.289 109.272C211.21 109.373 211.094 109.439 210.966 109.455C210.838 109.471 210.709 109.436 210.607 109.357Z" fill="#E4E4E4"/>
<path d="M212.65 119.344C212.549 119.265 212.483 119.149 212.467 119.021C212.451 118.894 212.486 118.765 212.565 118.663L226.997 100.129C227.036 100.079 227.085 100.037 227.14 100.005C227.196 99.9736 227.257 99.9534 227.32 99.9455C227.383 99.9376 227.448 99.9422 227.509 99.9591C227.571 99.9759 227.628 100.005 227.679 100.044C227.729 100.083 227.771 100.132 227.803 100.187C227.834 100.242 227.854 100.303 227.862 100.366C227.87 100.43 227.866 100.494 227.849 100.555C227.832 100.617 227.803 100.674 227.764 100.724L213.332 119.259C213.253 119.36 213.136 119.426 213.009 119.442C212.881 119.458 212.752 119.423 212.65 119.344Z" fill="#E4E4E4"/>
<path d="M214.165 120.52C214.064 120.441 213.998 120.325 213.982 120.198C213.966 120.07 214.001 119.941 214.08 119.84L228.512 101.305C228.551 101.255 228.6 101.213 228.655 101.182C228.711 101.15 228.772 101.13 228.835 101.122C228.899 101.114 228.963 101.119 229.024 101.135C229.086 101.152 229.143 101.181 229.194 101.22C229.244 101.259 229.286 101.308 229.318 101.363C229.349 101.419 229.37 101.48 229.378 101.543C229.386 101.606 229.381 101.67 229.364 101.732C229.347 101.793 229.318 101.851 229.279 101.901L214.847 120.435C214.768 120.537 214.652 120.602 214.524 120.618C214.396 120.634 214.267 120.599 214.165 120.52Z" fill="#E4E4E4"/>
<path d="M217.605 123.191C217.503 123.112 217.437 122.996 217.421 122.868C217.405 122.74 217.441 122.612 217.52 122.51L231.952 103.976C231.991 103.926 232.039 103.883 232.095 103.852C232.15 103.82 232.211 103.8 232.275 103.792C232.338 103.784 232.402 103.789 232.464 103.806C232.525 103.823 232.583 103.852 232.633 103.891C232.684 103.93 232.726 103.978 232.757 104.034C232.789 104.089 232.809 104.15 232.817 104.213C232.825 104.277 232.82 104.341 232.803 104.402C232.787 104.463 232.758 104.521 232.719 104.571L218.286 123.105C218.207 123.207 218.091 123.273 217.963 123.289C217.835 123.305 217.707 123.269 217.605 123.191Z" fill="#E4E4E4"/>
<path d="M219.12 124.367C219.018 124.288 218.952 124.172 218.936 124.044C218.92 123.917 218.956 123.788 219.035 123.686L233.467 105.152C233.506 105.102 233.555 105.06 233.61 105.028C233.665 104.997 233.727 104.977 233.79 104.969C233.853 104.961 233.917 104.965 233.979 104.982C234.04 104.999 234.098 105.028 234.148 105.067C234.199 105.106 234.241 105.155 234.272 105.21C234.304 105.265 234.324 105.327 234.332 105.39C234.34 105.453 234.335 105.517 234.319 105.578C234.302 105.64 234.273 105.697 234.234 105.748L219.802 124.282C219.722 124.383 219.606 124.449 219.478 124.465C219.351 124.481 219.222 124.446 219.12 124.367Z" fill="#E4E4E4"/>
<path d="M222.559 127.038C222.458 126.958 222.392 126.842 222.376 126.715C222.36 126.587 222.395 126.459 222.474 126.357L236.906 107.823C236.945 107.772 236.994 107.73 237.049 107.699C237.105 107.667 237.166 107.647 237.229 107.639C237.293 107.631 237.357 107.636 237.418 107.653C237.48 107.67 237.537 107.698 237.588 107.738C237.638 107.777 237.68 107.825 237.712 107.881C237.743 107.936 237.764 107.997 237.772 108.06C237.78 108.123 237.775 108.188 237.758 108.249C237.741 108.31 237.712 108.368 237.673 108.418L223.241 126.952C223.162 127.054 223.046 127.12 222.918 127.136C222.79 127.152 222.661 127.116 222.559 127.038Z" fill="#E4E4E4"/>
<path d="M224.075 128.214C223.973 128.135 223.907 128.019 223.891 127.891C223.875 127.764 223.91 127.635 223.989 127.533L238.421 108.999C238.501 108.898 238.617 108.832 238.744 108.817C238.872 108.801 239.001 108.836 239.102 108.915C239.204 108.994 239.27 109.11 239.286 109.237C239.302 109.364 239.267 109.493 239.188 109.594L224.756 128.129C224.677 128.23 224.561 128.296 224.433 128.312C224.305 128.328 224.176 128.293 224.075 128.214Z" fill="#E4E4E4"/>
<path d="M199.954 149.739C200.064 149.739 200.153 149.649 200.153 149.539C200.153 149.429 200.064 149.34 199.954 149.34C199.844 149.34 199.754 149.429 199.754 149.539C199.754 149.649 199.844 149.739 199.954 149.739Z" fill="white"/>
<path d="M229.014 12.5198C228.312 16.2831 227.162 19.949 225.588 23.4392C216.572 42.4844 242.247 36.2767 251.422 36.2767C261.454 36.2767 271.053 41.5443 269.587 18.1383C268.961 8.14034 261.454 0 251.422 0C242.853 0 230.806 3.80325 229.014 12.5198Z" fill="#2F2E41"/>
<path d="M260.773 291.844H252.226L248.159 258.923H260.773V291.844Z" fill="#FFB6B6"/>
<path d="M265.285 306.632H259.155L258.061 300.853L255.259 306.632H239.002C238.223 306.632 237.464 306.383 236.836 305.922C236.208 305.461 235.745 304.811 235.513 304.069C235.281 303.326 235.293 302.528 235.547 301.793C235.801 301.057 236.284 300.422 236.925 299.98L249.908 291.026V285.184L263.563 285.998L265.285 306.632Z" fill="#2F2E41"/>
<path d="M311.553 281.073L304.694 286.166L281.758 262.173L291.881 254.655L311.553 281.073Z" fill="#FFB6B6"/>
<path d="M324.01 290.251L319.091 293.904L314.76 289.918L315.965 296.225L302.919 305.912C302.294 306.377 301.536 306.629 300.757 306.633C299.978 306.637 299.218 306.392 298.588 305.934C297.958 305.476 297.491 304.829 297.255 304.088C297.019 303.346 297.027 302.548 297.278 301.812L302.345 286.891L298.854 282.203L310.298 274.72L324.01 290.251Z" fill="#2F2E41"/>
<path d="M232.78 140.333L273.354 134.023L265.285 109.784H232.78V140.333Z" fill="#FFB6B6"/>
<path d="M270.725 121.992C270.725 121.992 286.942 135.983 279.459 175.867L270.325 214.946L295.212 258.093L282.557 264.986L251.888 222.42L237.853 189.547L230.43 131.934L270.725 121.992Z" fill="#2F2E41"/>
<path d="M245.589 198.915L244.613 213.999L247.469 258.668L261.645 263.541L264.329 217.774L245.589 198.915Z" fill="#2F2E41"/>
<path d="M241.231 41.2969L256.914 41.9079L263.165 52.2687L277.426 55.0487L268.912 98.0556L270.478 122.535L256.278 122.448C246.044 122.386 236.148 126.099 228.486 132.874L228.911 101.098L222.803 77.3779L224.176 52.5058L235.648 51.0738L241.231 41.2969Z" fill="white"/>
<path d="M249.919 36.2722C258.071 36.2722 264.68 29.6731 264.68 21.5327C264.68 13.3923 258.071 6.79327 249.919 6.79327C241.767 6.79327 235.159 13.3923 235.159 21.5327C235.159 29.6731 241.767 36.2722 249.919 36.2722Z" fill="#FFB6B6"/>
<path d="M239.895 6.50792C242.482 4.93335 245.445 4.0816 248.474 4.04172C251.503 4.00184 254.487 4.77532 257.114 6.28125C259.741 7.78719 261.915 9.97028 263.408 12.6023C264.901 15.2342 265.659 18.2184 265.601 21.2428C258.08 23.1285 250.178 24.5715 242.157 21.6938L240.263 17.0646L239.146 21.6973C236.704 22.6943 234.255 23.5378 231.806 21.6876C231.706 18.6718 232.4 15.6826 233.82 13.0187C235.24 10.3549 237.334 8.10984 239.895 6.50792Z" fill="#2F2E41"/>
<path d="M274.696 152.251L276.685 170.283C276.824 170.733 277.103 171.127 277.483 171.406C277.862 171.686 278.321 171.837 278.792 171.837H287.964C288.436 171.837 288.895 171.686 289.274 171.406C289.653 171.127 289.933 170.733 290.071 170.283L291.719 156.462C292.195 156.695 292.719 156.812 293.249 156.803C293.779 156.794 294.299 156.66 294.766 156.411C295.234 156.163 295.636 155.807 295.939 155.373C296.242 154.939 296.437 154.439 296.509 153.915C296.581 153.391 296.528 152.857 296.353 152.358C296.178 151.858 295.887 151.408 295.503 151.042C295.12 150.677 294.655 150.408 294.148 150.257C293.64 150.106 293.103 150.078 292.582 150.175C292.377 149.932 292.121 149.737 291.832 149.604C291.543 149.471 291.228 149.402 290.91 149.403H276.803C276.458 149.403 276.117 149.483 275.809 149.639C275.502 149.794 275.234 150.019 275.029 150.296C274.824 150.573 274.687 150.894 274.63 151.234C274.572 151.573 274.594 151.922 274.696 152.251ZM292.007 155.528L293.017 152.251C293.134 151.873 293.145 151.47 293.05 151.086C293.093 151.084 293.134 151.073 293.178 151.073C293.811 151.073 294.419 151.325 294.868 151.772C295.316 152.22 295.568 152.827 295.568 153.46C295.568 154.093 295.316 154.7 294.868 155.147C294.419 155.595 293.811 155.846 293.178 155.846C292.766 155.844 292.363 155.734 292.007 155.528Z" fill="#6C63FF"/>
<path d="M288.526 171.849C287.948 171.268 287.503 170.568 287.225 169.796C286.947 169.025 286.841 168.203 286.915 167.387C286.99 166.57 287.242 165.78 287.656 165.072C288.069 164.364 288.633 163.755 289.307 163.288L280.368 118.952L290.24 122.117L297.395 165.001C298.106 166.184 298.357 167.587 298.101 168.943C297.845 170.299 297.1 171.514 296.007 172.358C294.914 173.203 293.548 173.617 292.17 173.523C290.791 173.429 289.495 172.834 288.526 171.849Z" fill="#FFB6B6"/>
<path d="M271.301 59.6653L277.425 55.0486C277.425 55.0486 282.828 54.6666 283.785 64.3963C284.742 74.126 290.734 111.468 290.734 111.468L300.106 154.814L287.132 157.658L277.094 110.88L267.045 78.6079L271.301 59.6653Z" fill="white"/>
<path d="M218.44 100.024C220.355 100.024 221.907 98.4744 221.907 96.5624C221.907 94.6503 220.355 93.1003 218.44 93.1003C216.525 93.1003 214.973 94.6503 214.973 96.5624C214.973 98.4744 216.525 100.024 218.44 100.024Z" fill="#6C63FF"/>
<path d="M107.881 332.006L115.106 332.006L118.544 304.177L107.88 304.177L107.881 332.006Z" fill="#FFB6B6"/>
<path d="M106.038 329.651L108.072 329.651L116.012 326.426L120.268 329.65H120.268C122.673 329.65 124.979 330.604 126.68 332.302C128.381 334 129.336 336.303 129.336 338.705V338.999L106.039 339L106.038 329.651Z" fill="#2F2E41"/>
<path d="M135.881 327.459L142.929 329.049L152.421 302.659L142.019 300.314L135.881 327.459Z" fill="#FFB6B6"/>
<path d="M134.603 324.756L136.586 325.204L145.043 323.805L148.483 327.886L148.483 327.886C150.829 328.415 152.868 329.853 154.152 331.883C155.437 333.914 155.861 336.371 155.331 338.713L155.266 339L132.541 333.876L134.603 324.756Z" fill="#2F2E41"/>
<path d="M94.6533 188.857L101.187 261.955C101.187 261.955 98.7389 305.839 106.639 321.282H118.095L123.768 257.947L124.48 215.436L149.042 251.301L133.398 320.247L147.498 321.505L172.884 246.683L144.994 176.443L94.6533 188.857Z" fill="#2F2E41"/>
<path d="M101.496 72.45C110.802 72.45 118.346 64.9168 118.346 55.6241C118.346 46.3314 110.802 38.7982 101.496 38.7982C92.1901 38.7982 84.646 46.3314 84.646 55.6241C84.646 64.9168 92.1901 72.45 101.496 72.45Z" fill="#FFB8B8"/>
<path d="M131.117 88.4841L117.294 82.5613L110.564 75.4339L93.7532 78.1412L89.2929 85.7781L74.854 99.1847L91.7708 175.565L91.2587 192.247C91.2587 192.247 102.086 197.114 149.042 185.907C149.605 185.773 148.426 185.185 148.426 185.185L131.117 88.4841Z" fill="#3F3D56"/>
<path d="M83.9746 65.1715C83.8572 65.0115 83.741 64.8502 83.6258 64.6875C83.5795 64.7852 83.5427 64.8861 83.4897 64.9815L83.9746 65.1715Z" fill="#2F2E41"/>
<path d="M118.258 43.3166C117.132 40.8664 115.123 38.9291 112.632 37.8896C110.163 36.8952 107.404 36.8976 104.937 37.8964C102.709 36.491 100.234 35.3768 97.6272 35.2388C95.0205 35.1008 92.2645 36.0665 90.6582 38.1921C90.2995 38.7532 89.8921 39.2818 89.4407 39.7716C88.1494 40.9656 86.1871 40.7934 84.4709 40.5493C85.2406 41.2081 86.0106 41.8669 86.7808 42.5257C85.849 42.7688 84.9171 43.0118 83.9851 43.2549C85.0726 43.9135 86.16 44.5721 87.2473 45.2307C84.0904 47.1227 82.6556 51.2524 83.0346 55.0031C83.3932 58.5541 85.11 61.8012 87.1624 64.6873C87.9811 62.9621 87.8047 60.8978 87.7912 58.9547C87.7771 56.9017 88.1408 54.5703 89.7883 53.4229C90.8997 52.6489 92.3287 52.6144 93.6689 52.6217C100.429 52.6587 107.181 53.0797 113.893 53.8825C114.804 53.9219 115.692 54.179 116.483 54.6324C117.967 55.6436 118.256 57.7304 118.405 59.5611C119.19 56.5383 119.573 53.4258 119.547 50.3034C119.613 47.9099 119.174 45.5294 118.258 43.3166Z" fill="#2F2E41"/>
<path d="M123.504 240.099C138.151 240.099 150.025 228.242 150.025 213.616C150.025 198.99 138.151 187.134 123.504 187.134C108.857 187.134 96.9829 198.99 96.9829 213.616C96.9829 228.242 108.857 240.099 123.504 240.099Z" fill="white"/>
<path d="M123.504 186.545C122.141 186.545 120.779 186.647 119.431 186.851C118.742 186.951 118.07 187.08 117.404 187.239C112.511 188.366 108.028 190.827 104.455 194.349C100.882 197.871 98.3585 202.316 97.1673 207.186C95.976 212.057 96.1634 217.162 97.7085 221.932C99.2536 226.703 102.096 230.951 105.918 234.202C106.371 234.585 106.831 234.955 107.308 235.309C110.749 237.87 114.75 239.579 118.981 240.295C123.213 241.011 127.554 240.714 131.648 239.427C135.741 238.14 139.471 235.901 142.528 232.894C145.586 229.887 147.885 226.198 149.236 222.13C150.587 218.062 150.952 213.732 150.299 209.497C149.647 205.261 147.997 201.24 145.484 197.766C142.972 194.291 139.669 191.462 135.848 189.512C132.026 187.561 127.796 186.544 123.504 186.545V186.545ZM123.504 239.511C117.99 239.516 112.619 237.757 108.181 234.491C107.697 234.137 107.232 233.773 106.778 233.384C103.054 230.248 100.292 226.126 98.8062 221.494C97.3209 216.861 97.1734 211.903 98.3805 207.191C99.5877 202.478 102.101 198.2 105.631 194.848C109.162 191.496 113.567 189.206 118.341 188.24C119.001 188.104 119.661 187.999 120.333 187.916C121.385 187.786 122.444 187.721 123.504 187.722C130.381 187.722 136.977 190.45 141.84 195.306C146.703 200.162 149.435 206.749 149.435 213.616C149.435 220.484 146.703 227.07 141.84 231.926C136.977 236.782 130.381 239.511 123.504 239.511Z" fill="#3F3D56"/>
<path d="M110.496 208.32H136.512C137.465 208.32 138.238 207.548 138.238 206.597V206.512C138.238 205.56 137.465 204.789 136.512 204.789H110.496C109.543 204.789 108.77 205.56 108.77 206.512V206.597C108.77 207.548 109.543 208.32 110.496 208.32Z" fill="#6C63FF"/>
<path d="M110.496 215.382H136.512C137.465 215.382 138.238 214.61 138.238 213.659V213.574C138.238 212.622 137.465 211.851 136.512 211.851H110.496C109.543 211.851 108.77 212.622 108.77 213.574V213.659C108.77 214.61 109.543 215.382 110.496 215.382Z" fill="#6C63FF"/>
<path d="M110.496 222.444H136.512C137.465 222.444 138.238 221.672 138.238 220.721V220.636C138.238 219.684 137.465 218.913 136.512 218.913H110.496C109.543 218.913 108.77 219.684 108.77 220.636V220.721C108.77 221.672 109.543 222.444 110.496 222.444Z" fill="#6C63FF"/>
<path d="M420.215 331.108L412.639 331.107L409.034 301.927L420.216 301.927L420.215 331.108Z" fill="#9E616A"/>
<path d="M384.372 331.108L376.796 331.107L373.192 301.927L384.374 301.927L384.372 331.108Z" fill="#9E616A"/>
<path d="M384.639 339L361.341 338.999V338.705C361.341 336.303 362.297 334 363.997 332.302C365.698 330.604 368.004 329.65 370.409 329.65H370.41L374.666 326.426L382.606 329.651L384.639 329.651L384.639 339Z" fill="#2F2E41"/>
<path d="M421.453 339L398.156 338.999V338.705C398.156 336.303 399.111 334 400.812 332.302C402.513 330.604 404.819 329.65 407.224 329.65H407.224L411.48 326.426L419.42 329.651L421.454 329.651L421.453 339Z" fill="#2F2E41"/>
<path d="M376.941 158.407L365.427 228.417L368.56 238.85L364.448 246.239L370.487 311.129L368.035 316.518L374.884 320.735H388.819L389.559 261.99L393.001 253.365V248.611L400.009 212.789L401.299 262.955L403.337 271.594L401.625 277.745L403.862 282.054L409.805 322.015H425.431L424.223 312.718C425.584 312.03 426.677 310.91 427.331 309.533C427.985 308.157 428.163 306.603 427.836 305.115L426.94 301.04L428.979 288.991L432.692 221.773L431.645 167.536L413.365 153.578L376.941 158.407Z" fill="#2F2E41"/>
<path d="M403.337 68.5058C411.355 68.5058 417.855 62.0152 417.855 54.0087C417.855 46.0021 411.355 39.5115 403.337 39.5115C395.319 39.5115 388.819 46.0021 388.819 54.0087C388.819 62.0152 395.319 68.5058 403.337 68.5058Z" fill="#9E616A"/>
<path d="M371.617 186.189C372.249 185.537 372.73 184.755 373.026 183.898C373.322 183.04 373.427 182.128 373.332 181.226C373.237 180.324 372.945 179.453 372.477 178.676C372.009 177.898 371.376 177.233 370.622 176.726L376.268 155.407L365.391 159.061L361.697 178.745C360.929 180.066 360.672 181.622 360.976 183.119C361.28 184.616 362.123 185.949 363.346 186.867C364.569 187.785 366.086 188.222 367.611 188.097C369.135 187.973 370.56 187.294 371.617 186.189H371.617Z" fill="#9E616A"/>
<path d="M377.558 83.8343L375.224 83.3505L373.233 84.4514C373.233 84.4514 367.671 91.8564 367.671 98.6444C367.671 105.432 360.873 170.843 360.873 170.843L373.233 176.397L383.12 125.179L377.558 83.8343Z" fill="#9E616A"/>
<path d="M416.051 43.3794C416.051 43.3794 419.848 36.1309 411.494 35.4719C411.494 35.4719 404.373 29.0209 397.114 34.2925C397.114 34.2925 393.154 34.2925 390.989 38.7667C390.989 38.7667 387.875 37.5874 387.19 40.7436C387.19 40.7436 384.912 47.3332 387.19 53.2639C389.469 59.1945 390.226 59.8535 390.226 59.8535C390.226 59.8535 386.482 47.4195 395.596 46.7606C404.71 46.1016 414.909 40.4141 415.668 47.6627C416.428 54.9112 417.571 56.6972 417.571 56.6972C417.571 56.6972 424.785 46.3448 416.051 43.3794Z" fill="#2F2E41"/>
<path d="M469.085 246.239C467.989 246.24 466.931 245.838 466.115 245.108L422.178 206.053C421.293 205.265 420.757 204.157 420.688 202.974C420.619 201.792 421.023 200.63 421.811 199.744L449.957 168.17C450.747 167.286 451.856 166.751 453.041 166.682C454.225 166.613 455.389 167.017 456.276 167.804L500.213 206.858C501.099 207.646 501.636 208.754 501.705 209.937C501.773 211.12 501.369 212.282 500.58 213.167L472.433 244.741C472.044 245.18 471.571 245.539 471.041 245.794C470.512 246.05 469.937 246.199 469.35 246.231C469.261 246.237 469.173 246.239 469.085 246.239Z" fill="white"/>
<path d="M469.084 246.526C467.918 246.528 466.793 246.099 465.924 245.322L421.987 206.268C421.045 205.429 420.475 204.25 420.402 202.991C420.328 201.732 420.758 200.496 421.597 199.553L449.743 167.979C450.584 167.038 451.764 166.469 453.024 166.396C454.285 166.323 455.523 166.752 456.468 167.589L500.404 206.643C501.348 207.482 501.919 208.661 501.992 209.92C502.065 211.179 501.635 212.416 500.795 213.358L472.649 244.932C472.234 245.4 471.73 245.781 471.167 246.053C470.604 246.325 469.992 246.483 469.367 246.518C469.273 246.523 469.178 246.526 469.084 246.526ZM453.302 167.536C452.792 167.535 452.288 167.642 451.822 167.85C451.357 168.058 450.941 168.363 450.602 168.743L422.456 200.317C421.82 201.032 421.494 201.97 421.55 202.924C421.605 203.879 422.038 204.773 422.752 205.41L466.689 244.464C467.043 244.779 467.456 245.021 467.904 245.177C468.352 245.333 468.827 245.399 469.3 245.371C469.774 245.344 470.238 245.223 470.665 245.017C471.092 244.81 471.474 244.522 471.789 244.168L499.935 212.594C500.572 211.88 500.899 210.942 500.844 209.987C500.788 209.032 500.355 208.138 499.639 207.502L455.702 168.447C455.042 167.859 454.187 167.534 453.302 167.536H453.302Z" fill="#3F3D56"/>
<path d="M485.017 216.337C484.543 216.338 484.085 216.164 483.73 215.848L449.242 185.192C449.051 185.024 448.895 184.819 448.784 184.59C448.672 184.361 448.607 184.113 448.592 183.859C448.577 183.605 448.612 183.35 448.695 183.11C448.779 182.869 448.909 182.648 449.078 182.458C449.248 182.268 449.453 182.113 449.683 182.002C449.912 181.891 450.161 181.827 450.416 181.813C450.67 181.798 450.925 181.834 451.166 181.919C451.406 182.003 451.628 182.133 451.817 182.303L486.306 212.96C486.599 213.22 486.806 213.564 486.9 213.945C486.993 214.326 486.968 214.726 486.828 215.092C486.688 215.459 486.44 215.774 486.117 215.996C485.793 216.219 485.41 216.337 485.017 216.337Z" fill="#6C63FF"/>
<path d="M478.438 223.716C477.964 223.717 477.506 223.543 477.152 223.228L442.663 192.571C442.473 192.402 442.319 192.198 442.208 191.969C442.097 191.741 442.033 191.493 442.018 191.239C442.003 190.986 442.039 190.732 442.122 190.492C442.206 190.252 442.336 190.031 442.505 189.841C442.674 189.652 442.879 189.497 443.108 189.387C443.337 189.276 443.585 189.211 443.839 189.197C444.093 189.182 444.347 189.217 444.587 189.301C444.827 189.384 445.049 189.514 445.239 189.683L479.727 220.339C480.021 220.6 480.228 220.943 480.321 221.324C480.414 221.705 480.389 222.105 480.249 222.472C480.11 222.838 479.862 223.153 479.538 223.376C479.215 223.598 478.831 223.717 478.438 223.716H478.438Z" fill="#6C63FF"/>
<path d="M471.86 231.096C471.385 231.097 470.927 230.923 470.573 230.607L436.085 199.952C435.894 199.783 435.739 199.578 435.628 199.349C435.517 199.121 435.452 198.872 435.437 198.619C435.423 198.365 435.458 198.111 435.541 197.871C435.625 197.631 435.755 197.41 435.924 197.22C436.094 197.03 436.299 196.875 436.528 196.765C436.757 196.654 437.006 196.59 437.26 196.575C437.514 196.56 437.768 196.596 438.009 196.68C438.249 196.763 438.47 196.893 438.66 197.063L473.149 227.719C473.442 227.98 473.649 228.323 473.742 228.704C473.836 229.085 473.811 229.485 473.671 229.851C473.531 230.218 473.283 230.533 472.96 230.756C472.636 230.978 472.253 231.097 471.86 231.096H471.86Z" fill="#6C63FF"/>
<path d="M432.42 187.447C431.978 186.655 431.714 185.776 431.649 184.871C431.584 183.966 431.718 183.058 432.042 182.21C432.366 181.363 432.872 180.597 433.525 179.966C434.178 179.335 434.961 178.855 435.82 178.559L435.857 156.507L445.427 162.832L443.924 182.803C444.326 184.276 444.173 185.846 443.494 187.214C442.815 188.583 441.656 189.655 440.238 190.227C438.82 190.8 437.241 190.833 435.8 190.321C434.359 189.808 433.157 188.786 432.42 187.447H432.42Z" fill="#9E616A"/>
<path d="M433.304 89.8771L437.58 85.7623L440.72 88.0258C440.72 88.0258 443.81 91.7283 446.282 102.836C448.754 113.943 446.282 175.035 446.282 175.035L432.686 173.184L434.54 141.095L428.979 113.943L433.304 89.8771Z" fill="#9E616A"/>
<path d="M439.617 86.766L425.214 79.8958L415.435 70.8386L397.603 70.7054L391.851 78.1726L376.665 83.3237L379.196 135.613L377.47 139.633C377.47 139.633 378.672 140.718 379.222 141.324C379.771 141.931 378.463 147.009 378.463 147.009L377.725 152.534L379.771 153.993L377.111 157.131L376.451 162.076C376.451 162.076 422.88 150.553 431.653 169.642C432.117 170.651 430.975 160.794 430.975 160.794L429.834 153.578L430.966 147.101L432.692 145.377L429.798 142.487L431.653 128.774L439.617 86.766Z" fill="#74CFE4"/>
<path d="M112.98 202.686C113.338 201.78 113.492 200.806 113.432 199.834C113.372 198.862 113.099 197.915 112.632 197.059C112.166 196.204 111.518 195.461 110.733 194.883C109.947 194.304 109.045 193.905 108.089 193.713L104.889 170.252L95.6123 178.35L100.073 199.387C99.856 201.013 100.244 202.661 101.163 204.02C102.082 205.379 103.468 206.355 105.059 206.761C106.65 207.168 108.335 206.978 109.795 206.227C111.255 205.476 112.388 204.216 112.98 202.686V202.686Z" fill="#FFB8B8"/>
<path d="M76.6346 98.7556L74.12 99.2366L72.6001 101.147C72.6001 101.147 70.1413 110.778 72.9423 117.508C75.7434 124.239 95.9952 191.891 95.9952 191.891L110.542 192.312L99.21 137.461L76.6346 98.7556Z" fill="#3F3D56"/>
<path d="M133.98 199.245C133.31 198.537 132.803 197.691 132.496 196.766C132.189 195.842 132.088 194.861 132.202 193.894C132.315 192.926 132.639 191.996 133.152 191.167C133.664 190.338 134.353 189.632 135.168 189.097L129.377 166.137L141.009 170.197L144.725 191.378C145.533 192.805 145.789 194.479 145.443 196.083C145.098 197.686 144.176 199.107 142.852 200.077C141.527 201.046 139.892 201.497 138.257 201.344C136.622 201.191 135.1 200.444 133.98 199.245Z" fill="#FFB8B8"/>
<path d="M128.898 89.2765L131.411 88.7866L133.535 89.9937C133.535 89.9937 139.412 98.0143 139.326 105.302C139.24 112.59 145.71 182.904 145.71 182.904L132.37 188.711L122.403 133.596L128.898 89.2765Z" fill="#3F3D56"/>
</g>
<defs>
<clipPath id="clip0">
<rect width="502" height="339" fill="white"/>
</clipPath>
</defs>
</svg>
